<?xml version="1.0" encoding="UTF-8"?>
<svg id="Layer_2" data-name="Layer 2" xmlns="http://www.w3.org/2000/svg" viewBox="0 0 131.06 100.8">
  <g id="Graphic_Elements" data-name="Graphic Elements">
    <g>
      <path d="M129.09,93.41c.21-.83.41-1.67.58-2.5-40.82-10.98-81.11-6.55-89.99,9.89,8.88-16.44,48.91-19.75,89.41-7.39Z" fill="#ef4444"/>
      <path d="M130.32,87.37c.13-.85.24-1.7.34-2.55-41.37-7.62-82.1-.47-90.98,15.98,8.88-16.44,49.46-22.45,90.64-13.42Z" fill="#ef4444"/>
      <path d="M130.96,81.23c.05-.86.08-1.72.1-2.58-41.59-4.21-82.5,5.7-91.38,22.15,8.88-16.44,49.75-25.2,91.29-19.56Z" fill="#ef4444"/>
      <path d="M131.03,75.03c-.03-.87-.08-1.73-.14-2.6-41.49-.78-82.33,11.93-91.21,28.37,8.88-16.44,49.78-27.98,91.35-25.77Z" fill="#ef4444"/>
      <path d="M130.52,68.79c-.11-.87-.24-1.73-.38-2.6-41.08,2.67-81.58,18.16-90.46,34.6,8.88-16.44,49.55-30.77,90.85-32Z" fill="#ef4444"/>
      <path d="M129.44,62.57c-.19-.86-.4-1.73-.62-2.58-40.35,6.1-80.26,24.37-89.14,40.81,8.88-16.44,49.07-33.56,89.76-38.23Z" fill="#ef4444"/>
      <path d="M127.79,56.4c-.27-.85-.56-1.7-.86-2.55-39.31,9.49-78.37,30.51-87.25,46.95,8.88-16.44,48.33-36.32,88.11-44.4Z" fill="#ef4444"/>
      <path d="M125.56,50.31c-.35-.84-.71-1.67-1.1-2.5-37.95,12.82-75.91,36.54-84.79,52.99,8.88-16.44,47.33-39.05,85.88-50.48Z" fill="#ef4444"/>
      <path d="M122.77,44.36c-.43-.82-.87-1.63-1.33-2.44-36.28,16.08-72.88,42.44-81.76,58.88,8.88-16.44,46.08-41.71,83.1-56.44Z" fill="#ef4444"/>
      <path d="M119.42,38.57c-.51-.79-1.03-1.58-1.57-2.36-34.29,19.23-69.29,48.15-78.18,64.59,8.88-16.44,44.58-44.31,79.74-62.23Z" fill="#ef4444"/>
      <path d="M115.51,32.98c-.58-.76-1.18-1.52-1.8-2.26-32,22.26-65.15,53.64-74.03,70.08,8.88-16.44,42.83-46.81,75.83-67.82Z" fill="#ef4444"/>
      <path d="M111.03,27.63c-.66-.73-1.34-1.44-2.03-2.15-29.4,25.15-60.44,58.87-69.32,75.32,8.88-16.44,40.83-49.2,71.35-73.17Z" fill="#ef4444"/>
      <path d="M106,22.57c-.14-.12-.27-.25-.41-.37-.61-.56-1.22-1.1-1.84-1.63-26.51,27.87-55.19,63.79-64.07,80.24,8.88-16.44,38.58-51.47,66.32-78.23Z" fill="#ef4444"/>
      <path d="M98.15,16.12c-23.41,30.32-49.59,68.23-58.47,84.67,8.88-16.44,36.12-53.55,60.84-82.89-.78-.61-1.57-1.21-2.37-1.79Z" fill="#ef4444"/>
      <path d="M92.28,12.22c-20.17,32.47-43.72,72.13-52.6,88.57,8.88-16.44,33.54-55.4,55.08-87.01-.82-.54-1.65-1.06-2.48-1.56Z" fill="#ef4444"/>
      <path d="M86.18,8.86c-16.8,34.33-37.62,75.49-46.5,91.94,8.88-16.44,30.85-57.01,49.07-90.6-.85-.46-1.71-.91-2.57-1.34Z" fill="#ef4444"/>
      <path d="M79.9,6.04c-13.33,35.89-31.34,78.32-40.22,94.76,8.88-16.44,28.07-58.37,42.86-93.65-.88-.39-1.76-.76-2.64-1.11Z" fill="#ef4444"/>
      <path d="M73.47,3.75c-9.78,37.15-24.91,80.6-33.8,97.05,8.88-16.44,25.22-59.49,36.49-96.16-.9-.31-1.8-.61-2.7-.89Z" fill="#ef4444"/>
      <path d="M66.94,2.01c-6.18,38.12-18.38,82.35-27.27,98.79,8.88-16.44,22.31-60.38,30-98.13-.91-.24-1.82-.46-2.74-.66Z" fill="#ef4444"/>
      <path d="M60.35.8c-2.54,38.78-11.79,83.55-20.67,100,8.88-16.44,19.37-61.02,23.43-99.56-.92-.16-1.84-.31-2.76-.44Z" fill="#ef4444"/>
      <path d="M53.74.14c1.12,39.15-5.18,84.21-14.06,100.66C48.56,84.35,56.09,39.38,56.5.35c-.92-.09-1.84-.16-2.76-.21Z" fill="#ef4444"/>
      <path d="M49.89,0c-.92-.01-1.83,0-2.75.02,4.76,39.21,1.41,84.33-7.47,100.78C48.56,84.35,53.13,39.23,49.89,0Z" fill="#ef4444"/>
      <path d="M43.33.2c-.91.07-1.81.15-2.72.24,8.37,38.98,7.95,83.91-.93,100.35,8.88-16.44,10.52-61.48,3.65-100.59Z" fill="#ef4444"/>
      <path d="M36.85.95c-.89.14-1.78.3-2.67.47,11.92,38.44,14.38,82.93,5.5,99.38,8.88-16.44,7.62-61.15-2.83-99.85Z" fill="#ef4444"/>
      <path d="M30.49,2.24c-.87.22-1.74.45-2.61.7,15.39,37.6,20.67,81.42,11.79,97.86,8.88-16.44,4.77-60.57-9.18-98.56Z" fill="#ef4444"/>
      <path d="M24.31,4.08c-.85.29-1.69.6-2.52.93,18.77,36.46,26.78,79.35,17.9,95.79,8.88-16.44,2-59.75-15.37-96.72Z" fill="#ef4444"/>
      <path d="M18.32,6.46c-.82.37-1.62.76-2.43,1.16,22.02,35.02,32.66,76.73,23.78,93.18,8.88-16.44-.68-58.68-21.35-94.34Z" fill="#ef4444"/>
      <path d="M12.59,9.4c-.78.45-1.55.91-2.31,1.39,25.12,33.27,38.28,73.57,29.4,90.01,8.88-16.44-3.25-57.37-27.09-91.4Z" fill="#ef4444"/>
      <path d="M7.14,12.88c-.74.52-1.46,1.06-2.18,1.62,28.05,31.22,43.59,69.85,34.71,86.3,8.88-16.44-5.68-55.8-32.53-87.92Z" fill="#ef4444"/>
      <path d="M2.03,16.92c-.69.6-1.36,1.22-2.03,1.85,30.8,28.86,48.56,65.59,39.68,82.03,8.88-16.44-7.97-54-37.65-83.88Z" fill="#ef4444"/>
    </g>
  </g>
</svg>