<?xml version="1.0" encoding="UTF-8"?>
<svg id="Layer_2" data-name="Layer 2" xmlns="http://www.w3.org/2000/svg" viewBox="0 0 127.6 127.6">
  <g id="Graphic_Elements" data-name="Graphic Elements">
    <g opacity=".9">
      <g>
        <g>
          <path d="M65.47,48.91c0,.92-.75,1.67-1.67,1.67s-1.67-.75-1.67-1.67.75-1.67,1.67-1.67,1.67.75,1.67,1.67Z" fill="#ef4444"/>
          <circle cx="63.8" cy="37.83" r="2.4" fill="#ef4444"/>
          <path d="M66.93,26.75c0,1.73-1.4,3.13-3.13,3.13s-3.13-1.4-3.13-3.13,1.4-3.13,3.13-3.13,3.13,1.4,3.13,3.13Z" fill="#ef4444"/>
          <path d="M67.66,15.67c0,2.13-1.73,3.86-3.86,3.86s-3.86-1.73-3.86-3.86,1.73-3.86,3.86-3.86,3.86,1.73,3.86,3.86Z" fill="#ef4444"/>
          <path d="M68.39,4.59c0,2.54-2.06,4.59-4.59,4.59s-4.59-2.06-4.59-4.59,2.06-4.59,4.59-4.59,4.59,2.06,4.59,4.59Z" fill="#ef4444"/>
        </g>
        <g>
          <path d="M62.13,78.7c0-.92.75-1.67,1.67-1.67s1.67.75,1.67,1.67-.75,1.67-1.67,1.67-1.67-.75-1.67-1.67Z" fill="#ef4444"/>
          <circle cx="63.8" cy="89.78" r="2.4" fill="#ef4444"/>
          <path d="M60.67,100.86c0-1.73,1.4-3.13,3.13-3.13s3.13,1.4,3.13,3.13-1.4,3.13-3.13,3.13-3.13-1.4-3.13-3.13Z" fill="#ef4444"/>
          <path d="M59.94,111.93c0-2.13,1.73-3.86,3.86-3.86s3.86,1.73,3.86,3.86-1.73,3.86-3.86,3.86-3.86-1.73-3.86-3.86Z" fill="#ef4444"/>
          <path d="M59.21,123.01c0-2.54,2.06-4.59,4.59-4.59s4.59,2.06,4.59,4.59-2.06,4.59-4.59,4.59-4.59-2.06-4.59-4.59Z" fill="#ef4444"/>
        </g>
      </g>
      <g>
        <g>
          <circle cx="78.7" cy="63.8" r="1.67" fill="#ef4444"/>
          <circle cx="89.78" cy="63.8" r="2.4" fill="#ef4444"/>
          <circle cx="100.86" cy="63.8" r="3.13" fill="#ef4444"/>
          <path d="M111.93,67.66c-2.13,0-3.86-1.73-3.86-3.86s1.73-3.86,3.86-3.86,3.86,1.73,3.86,3.86-1.73,3.86-3.86,3.86Z" fill="#ef4444"/>
          <circle cx="123.01" cy="63.8" r="4.59" fill="#ef4444"/>
        </g>
        <g>
          <path d="M48.91,62.13c.92,0,1.67.75,1.67,1.67s-.75,1.67-1.67,1.67-1.67-.75-1.67-1.67.75-1.67,1.67-1.67Z" fill="#ef4444"/>
          <circle cx="37.83" cy="63.8" r="2.4" fill="#ef4444"/>
          <path d="M26.75,60.67c1.73,0,3.13,1.4,3.13,3.13s-1.4,3.13-3.13,3.13-3.13-1.4-3.13-3.13,1.4-3.13,3.13-3.13Z" fill="#ef4444"/>
          <path d="M15.67,59.94c2.13,0,3.86,1.73,3.86,3.86s-1.73,3.86-3.86,3.86-3.86-1.73-3.86-3.86,1.73-3.86,3.86-3.86Z" fill="#ef4444"/>
          <path d="M4.59,59.21c2.54,0,4.59,2.06,4.59,4.59s-2.06,4.59-4.59,4.59-4.59-2.06-4.59-4.59,2.06-4.59,4.59-4.59Z" fill="#ef4444"/>
        </g>
      </g>
      <g>
        <g>
          <path d="M77.54,57.8c-.8.46-1.82.19-2.28-.61-.46-.8-.19-1.82.61-2.28.8-.46,1.82-.19,2.28.61.46.8.19,1.82-.61,2.28Z" fill="#ef4444"/>
          <path d="M87.5,52.89c-1.15.66-2.61.27-3.28-.88s-.27-2.61.88-3.28c1.15-.66,2.61-.27,3.28.88.66,1.15.27,2.61-.88,3.28Z" fill="#ef4444"/>
          <path d="M97.46,47.99c-1.5.86-3.41.35-4.27-1.15s-.35-3.41,1.15-4.27,3.41-.35,4.27,1.15c.86,1.5.35,3.41-1.15,4.27Z" fill="#ef4444"/>
          <path d="M107.42,43.08c-1.85,1.07-4.21.43-5.27-1.41-1.07-1.85-.43-4.21,1.41-5.27s4.21-.43,5.27,1.41.43,4.21-1.41,5.27Z" fill="#ef4444"/>
          <path d="M117.38,38.17c-2.2,1.27-5,.52-6.27-1.68-1.27-2.2-.52-5,1.68-6.27,2.2-1.27,5-.52,6.27,1.68s.52,5-1.68,6.27Z" fill="#ef4444"/>
        </g>
        <g>
          <path d="M50.07,69.81c.8-.46,1.82-.19,2.28.61.46.8.19,1.82-.61,2.28s-1.82.19-2.28-.61c-.46-.8-.19-1.82.61-2.28Z" fill="#ef4444"/>
          <path d="M40.11,74.71c1.15-.66,2.61-.27,3.28.88.66,1.15.27,2.61-.88,3.28-1.15.66-2.61.27-3.28-.88-.66-1.15-.27-2.61.88-3.28Z" fill="#ef4444"/>
          <path d="M30.15,79.62c1.5-.86,3.41-.35,4.27,1.15.86,1.5.35,3.41-1.15,4.27-1.5.86-3.41.35-4.27-1.15-.86-1.5-.35-3.41,1.15-4.27Z" fill="#ef4444"/>
          <path d="M20.19,84.53c1.85-1.07,4.21-.43,5.27,1.41,1.07,1.85.43,4.21-1.41,5.27-1.85,1.07-4.21.43-5.27-1.41-1.07-1.85-.43-4.21,1.41-5.27Z" fill="#ef4444"/>
          <path d="M10.23,89.43c2.2-1.27,5-.52,6.27,1.68,1.27,2.2.52,5-1.68,6.27-2.2,1.27-5,.52-6.27-1.68-1.27-2.2-.52-5,1.68-6.27Z" fill="#ef4444"/>
        </g>
      </g>
      <g>
        <g>
          <path d="M72.69,51.74c-.46.8-1.48,1.07-2.28.61-.8-.46-1.07-1.48-.61-2.28.46-.8,1.48-1.07,2.28-.61s1.07,1.48.61,2.28Z" fill="#ef4444"/>
          <path d="M78.87,42.51c-.66,1.15-2.13,1.54-3.28.88-1.15-.66-1.54-2.13-.88-3.28.66-1.15,2.13-1.54,3.28-.88,1.15.66,1.54,2.13.88,3.28Z" fill="#ef4444"/>
          <path d="M85.04,33.28c-.86,1.5-2.78,2.01-4.27,1.15-1.5-.86-2.01-2.78-1.15-4.27.86-1.5,2.78-2.01,4.27-1.15s2.01,2.78,1.15,4.27Z" fill="#ef4444"/>
          <path d="M91.21,24.05c-1.07,1.85-3.43,2.48-5.27,1.41-1.85-1.07-2.48-3.43-1.41-5.27,1.07-1.85,3.43-2.48,5.27-1.41,1.85,1.07,2.48,3.43,1.41,5.27Z" fill="#ef4444"/>
          <path d="M97.38,14.82c-1.27,2.2-4.08,2.95-6.27,1.68s-2.95-4.08-1.68-6.27c1.27-2.2,4.08-2.95,6.27-1.68,2.2,1.27,2.95,4.08,1.68,6.27Z" fill="#ef4444"/>
        </g>
        <g>
          <path d="M54.91,75.87c.46-.8,1.48-1.07,2.28-.61.8.46,1.07,1.48.61,2.28-.46.8-1.48,1.07-2.28.61-.8-.46-1.07-1.48-.61-2.28Z" fill="#ef4444"/>
          <path d="M48.74,85.1c.66-1.15,2.13-1.54,3.28-.88,1.15.66,1.54,2.13.88,3.28-.66,1.15-2.13,1.54-3.28.88-1.15-.66-1.54-2.13-.88-3.28Z" fill="#ef4444"/>
          <path d="M42.57,94.33c.86-1.5,2.78-2.01,4.27-1.15,1.5.86,2.01,2.78,1.15,4.27-.86,1.5-2.78,2.01-4.27,1.15s-2.01-2.78-1.15-4.27Z" fill="#ef4444"/>
          <path d="M36.39,103.56c1.07-1.85,3.43-2.48,5.27-1.41,1.85,1.07,2.48,3.43,1.41,5.27-1.07,1.85-3.43,2.48-5.27,1.41s-2.48-3.43-1.41-5.27Z" fill="#ef4444"/>
          <path d="M30.22,112.79c1.27-2.2,4.08-2.95,6.27-1.68,2.2,1.27,2.95,4.08,1.68,6.27-1.27,2.2-4.08,2.95-6.27,1.68s-2.95-4.08-1.68-6.27Z" fill="#ef4444"/>
        </g>
      </g>
      <g>
        <g>
          <path d="M69.27,49.84c-.24.89-1.15,1.42-2.04,1.18s-1.42-1.15-1.18-2.04c.24-.89,1.15-1.42,2.04-1.18s1.42,1.15,1.18,2.04Z" fill="#ef4444"/>
          <path d="M72.84,39.33c-.34,1.28-1.66,2.04-2.94,1.7-1.28-.34-2.04-1.66-1.7-2.94.34-1.28,1.66-2.04,2.94-1.7,1.28.34,2.04,1.66,1.7,2.94Z" fill="#ef4444"/>
          <path d="M76.41,28.82c-.45,1.67-2.16,2.66-3.83,2.21-1.67-.45-2.66-2.16-2.21-3.83s2.16-2.66,3.83-2.21c1.67.45,2.66,2.16,2.21,3.83Z" fill="#ef4444"/>
          <path d="M79.99,18.31c-.55,2.06-2.67,3.28-4.73,2.73-2.06-.55-3.28-2.67-2.73-4.73.55-2.06,2.67-3.28,4.73-2.73,2.06.55,3.28,2.67,2.73,4.73Z" fill="#ef4444"/>
          <path d="M83.56,7.8c-.66,2.45-3.17,3.9-5.62,3.25-2.45-.66-3.9-3.17-3.25-5.62.66-2.45,3.17-3.9,5.62-3.25,2.45.66,3.9,3.17,3.25,5.62Z" fill="#ef4444"/>
        </g>
        <g>
          <path d="M58.34,77.76c.24-.89,1.15-1.42,2.04-1.18s1.42,1.15,1.18,2.04-1.15,1.42-2.04,1.18c-.89-.24-1.42-1.15-1.18-2.04Z" fill="#ef4444"/>
          <path d="M54.76,88.27c.34-1.28,1.66-2.04,2.94-1.7,1.28.34,2.04,1.66,1.7,2.94-.34,1.28-1.66,2.04-2.94,1.7-1.28-.34-2.04-1.66-1.7-2.94Z" fill="#ef4444"/>
          <path d="M51.19,98.78c.45-1.67,2.16-2.66,3.83-2.21,1.67.45,2.66,2.16,2.21,3.83s-2.16,2.66-3.83,2.21c-1.67-.45-2.66-2.16-2.21-3.83Z" fill="#ef4444"/>
          <path d="M47.62,109.3c.55-2.06,2.67-3.28,4.73-2.73,2.06.55,3.28,2.67,2.73,4.73-.55,2.06-2.67,3.28-4.73,2.73-2.06-.55-3.28-2.67-2.73-4.73Z" fill="#ef4444"/>
          <circle cx="48.48" cy="121" r="4.59" transform="translate(-54 40.45) rotate(-30)" fill="#ef4444"/>
        </g>
      </g>
      <g>
        <g>
          <path d="M61.56,48.98c.24.89-.29,1.8-1.18,2.04s-1.8-.29-2.04-1.18c-.24-.89.29-1.8,1.18-2.04s1.8.29,2.04,1.18Z" fill="#ef4444"/>
          <path d="M59.4,38.09c.34,1.28-.42,2.59-1.7,2.94-1.28.34-2.59-.42-2.94-1.7-.34-1.28.42-2.59,1.7-2.94s2.59.42,2.94,1.7Z" fill="#ef4444"/>
          <path d="M57.23,27.2c.45,1.67-.54,3.39-2.21,3.83-1.67.45-3.39-.54-3.83-2.21-.45-1.67.54-3.39,2.21-3.83,1.67-.45,3.39.54,3.83,2.21Z" fill="#ef4444"/>
          <path d="M55.07,16.31c.55,2.06-.67,4.18-2.73,4.73-2.06.55-4.18-.67-4.73-2.73-.55-2.06.67-4.18,2.73-4.73,2.06-.55,4.18.67,4.73,2.73Z" fill="#ef4444"/>
          <circle cx="48.48" cy="6.61" r="4.59" transform="translate(18.52 45.29) rotate(-60)" fill="#ef4444"/>
        </g>
        <g>
          <path d="M66.05,78.62c-.24-.89.29-1.8,1.18-2.04s1.8.29,2.04,1.18c.24.89-.29,1.8-1.18,2.04-.89.24-1.8-.29-2.04-1.18Z" fill="#ef4444"/>
          <path d="M68.21,89.51c-.34-1.28.42-2.59,1.7-2.94,1.28-.34,2.59.42,2.94,1.7.34,1.28-.42,2.59-1.7,2.94-1.28.34-2.59-.42-2.94-1.7Z" fill="#ef4444"/>
          <path d="M70.37,100.4c-.45-1.67.54-3.39,2.21-3.83,1.67-.45,3.39.54,3.83,2.21.45,1.67-.54,3.39-2.21,3.83-1.67.45-3.39-.54-3.83-2.21Z" fill="#ef4444"/>
          <path d="M72.53,111.29c-.55-2.06.67-4.18,2.73-4.73,2.06-.55,4.18.67,4.73,2.73.55,2.06-.67,4.18-2.73,4.73-2.06.55-4.18-.67-4.73-2.73Z" fill="#ef4444"/>
          <path d="M74.69,122.18c-.66-2.45.8-4.97,3.25-5.62,2.45-.66,4.97.8,5.62,3.25.66,2.45-.8,4.97-3.25,5.62-2.45.66-4.97-.8-5.62-3.25Z" fill="#ef4444"/>
        </g>
      </g>
      <g>
        <g>
          <path d="M54.45,52.09c.65.65.65,1.71,0,2.36-.65.65-1.71.65-2.36,0s-.65-1.71,0-2.36,1.71-.65,2.36,0Z" fill="#ef4444"/>
          <path d="M47.13,43.74c.94.94.94,2.46,0,3.39s-2.46.94-3.39,0c-.94-.94-.94-2.46,0-3.39.94-.94,2.46-.94,3.39,0Z" fill="#ef4444"/>
          <path d="M39.81,35.39c1.22,1.22,1.22,3.2,0,4.43s-3.2,1.22-4.43,0-1.22-3.2,0-4.43c1.22-1.22,3.2-1.22,4.43,0Z" fill="#ef4444"/>
          <circle cx="29.77" cy="29.77" r="3.86" fill="#ef4444"/>
          <path d="M25.18,18.69c1.79,1.79,1.79,4.7,0,6.49-1.79,1.79-4.7,1.79-6.49,0-1.79-1.79-1.79-4.7,0-6.49,1.79-1.79,4.7-1.79,6.49,0Z" fill="#ef4444"/>
        </g>
        <g>
          <circle cx="74.34" cy="74.34" r="1.67" fill="#ef4444"/>
          <path d="M80.47,83.87c-.94-.94-.94-2.46,0-3.39.94-.94,2.46-.94,3.39,0s.94,2.46,0,3.39-2.46.94-3.39,0Z" fill="#ef4444"/>
          <path d="M87.79,92.22c-1.22-1.22-1.22-3.2,0-4.43,1.22-1.22,3.2-1.22,4.43,0,1.22,1.22,1.22,3.2,0,4.43-1.22,1.22-3.2,1.22-4.43,0Z" fill="#ef4444"/>
          <circle cx="97.84" cy="97.84" r="3.86" fill="#ef4444"/>
          <path d="M102.42,108.92c-1.79-1.79-1.79-4.7,0-6.49s4.7-1.79,6.49,0c1.79,1.79,1.79,4.7,0,6.49s-4.7,1.79-6.49,0Z" fill="#ef4444"/>
        </g>
      </g>
      <g>
        <g>
          <path d="M49.84,58.34c.89.24,1.42,1.15,1.18,2.04s-1.15,1.42-2.04,1.18-1.42-1.15-1.18-2.04c.24-.89,1.15-1.42,2.04-1.18Z" fill="#ef4444"/>
          <path d="M39.33,54.76c1.28.34,2.04,1.66,1.7,2.94-.34,1.28-1.66,2.04-2.94,1.7-1.28-.34-2.04-1.66-1.7-2.94.34-1.28,1.66-2.04,2.94-1.7Z" fill="#ef4444"/>
          <path d="M28.82,51.19c1.67.45,2.66,2.16,2.21,3.83-.45,1.67-2.16,2.66-3.83,2.21-1.67-.45-2.66-2.16-2.21-3.83.45-1.67,2.16-2.66,3.83-2.21Z" fill="#ef4444"/>
          <path d="M18.31,47.62c2.06.55,3.28,2.67,2.73,4.73-.55,2.06-2.67,3.28-4.73,2.73-2.06-.55-3.28-2.67-2.73-4.73.55-2.06,2.67-3.28,4.73-2.73Z" fill="#ef4444"/>
          <path d="M7.8,44.04c2.45.66,3.9,3.17,3.25,5.62-.66,2.45-3.17,3.9-5.62,3.25-2.45-.66-3.9-3.17-3.25-5.62.66-2.45,3.17-3.9,5.62-3.25Z" fill="#ef4444"/>
        </g>
        <g>
          <path d="M77.76,69.27c-.89-.24-1.42-1.15-1.18-2.04.24-.89,1.15-1.42,2.04-1.18.89.24,1.42,1.15,1.18,2.04-.24.89-1.15,1.42-2.04,1.18Z" fill="#ef4444"/>
          <path d="M88.27,72.84c-1.28-.34-2.04-1.66-1.7-2.94.34-1.28,1.66-2.04,2.94-1.7s2.04,1.66,1.7,2.94c-.34,1.28-1.66,2.04-2.94,1.7Z" fill="#ef4444"/>
          <path d="M98.78,76.41c-1.67-.45-2.66-2.16-2.21-3.83.45-1.67,2.16-2.66,3.83-2.21,1.67.45,2.66,2.16,2.21,3.83-.45,1.67-2.16,2.66-3.83,2.21Z" fill="#ef4444"/>
          <path d="M109.3,79.99c-2.06-.55-3.28-2.67-2.73-4.73.55-2.06,2.67-3.28,4.73-2.73,2.06.55,3.28,2.67,2.73,4.73-.55,2.06-2.67,3.28-4.73,2.73Z" fill="#ef4444"/>
          <path d="M119.81,83.56c-2.45-.66-3.9-3.17-3.25-5.62.66-2.45,3.17-3.9,5.62-3.25,2.45.66,3.9,3.17,3.25,5.62-.66,2.45-3.17,3.9-5.62,3.25Z" fill="#ef4444"/>
        </g>
      </g>
    </g>
  </g>
</svg>