<?xml version="1.0" encoding="UTF-8"?>
<svg id="Layer_2" data-name="Layer 2" xmlns="http://www.w3.org/2000/svg" viewBox="0 0 121.57 121.64">
  <g id="Graphic_Elements" data-name="Graphic Elements">
    <g>
      <path d="M95.64,95.67s0,0,0,0c.18.03.36.06.54.08.14.02.29.03.43.04-.03,0-.06,0-.09-.01-.27-.03-.57-.07-.88-.11Z" fill="#ef4444"/>
      <path d="M105.85,94.93c-.39.11-.79.21-1.18.3.32-.08.7-.18,1.18-.3Z" fill="#ef4444"/>
      <path d="M96.56,94.99c-.36-.1-.72-.21-1.08-.34.03.21.07.41.1.61.73.2,1.47.35,2.21.45,1.3.17,2.62.19,3.92.04l.41-.05c.83-.11,1.2-.16,1.82-.3.21-.05.44-.1.73-.17-1.11.24-2.23.36-3.36.37-1.59.02-3.18-.19-4.74-.62Z" fill="#ef4444"/>
      <path d="M105.85,94.93s.01,0,.02,0l.13-.04s-.03,0-.05.01c-.03,0-.07.02-.1.03Z" fill="#ef4444"/>
      <path d="M95.04,92.31c.08.35.15.71.22,1.08,4.62,1.99,10.76,2.54,17.19-1.68,0,0,0,0,0,0,0,0,0,0,.01,0,0,0,0,0,0,0,.49-.35.74-.54,1.08-.83.34-.29.78-.69,1.62-1.48.23-.24.5-.53.75-.82-.01.01-.02.03-.04.04-4.91,5.22-13.14,7.39-20.86,3.7Z" fill="#ef4444"/>
      <path d="M116.61,87.81c-.22.26-.44.51-.67.76.24-.27.47-.53.67-.76Z" fill="#ef4444"/>
      <path d="M119.83,81.75c-.39.79-.86,1.56-1.39,2.3s-1.13,1.45-1.8,2.12c-1.73,1.74-3.77,3.06-5.96,3.96-2.19.9-4.54,1.38-6.91,1.43s-4.75-.32-7.01-1.13c-.87-.31-1.72-.68-2.54-1.12,0,.02.01.04.02.05.03.08.05.17.07.26.11.37.22.73.32,1.07.61.31,1.24.59,1.88.84,2.25.86,4.62,1.28,6.98,1.27s4.7-.46,6.88-1.33c2.18-.88,4.21-2.19,5.94-3.93.46-.46.88-.93,1.27-1.43.39-.49.75-1,1.08-1.52.33-.52.63-1.06.89-1.6.18-.38.35-.76.5-1.15.07-.17.14-.35.2-.52.02-.07.05-.14.07-.21.19-.58.39-1.29.55-1.84,0-.01,0-.02,0-.03,0-.02,0-.04.01-.06.08-.34.16-.73.23-1.12-.1.42-.21.84-.34,1.26-.26.83-.58,1.64-.98,2.43Z" fill="#ef4444"/>
      <path d="M121.15,78.06c.08-.35.15-.71.2-1.07.01-.07.02-.13.03-.2,0,.02,0,.04-.01.07-.07.36-.14.78-.22,1.2Z" fill="#ef4444"/>
      <path d="M92.77,85.38c.23.55.48,1.16.69,1.72,11.6,6.15,28.56-.69,28.1-15.88l-.02-.24c-.07-.7-.19-1.57-.3-2.35-.04-.26-.07-.5-.11-.73.03.17.05.33.07.5,1.84,14.57-15.15,24.11-28.42,16.98Z" fill="#ef4444"/>
      <path d="M119.4,68.65c-.35,1.36-.92,2.72-1.69,4.04-.77,1.32-1.75,2.59-2.95,3.79-1.74,1.75-3.76,3.16-5.93,4.21-2.17,1.06-4.48,1.76-6.8,2.09-2.32.33-4.65.28-6.84-.16-1.58-.32-3.09-.84-4.48-1.57.31.59.63,1.21.88,1.73.03.06.05.12.08.17,1.33.71,2.75,1.25,4.23,1.6,2.23.53,4.58.66,6.93.4,2.34-.26,4.68-.9,6.86-1.92,2.18-1.02,4.21-2.41,5.95-4.15,1.13-1.13,2.06-2.34,2.81-3.6.74-1.26,1.3-2.56,1.67-3.88.37-1.32.54-2.65.53-3.97,0-1.22-.19-2.43-.52-3.6-.02-.09-.05-.17-.07-.26-.07-.2-.14-.42-.22-.65-.2-.57-.42-1.19-.63-1.74.37,1.09.58,2.23.64,3.39.06,1.34-.08,2.7-.43,4.07Z" fill="#ef4444"/>
      <path d="M117.11,57.97c.12,1.29,0,2.64-.35,4.02-.36,1.38-.95,2.79-1.78,4.17-.83,1.39-1.89,2.75-3.19,4.06-1.74,1.75-3.74,3.22-5.87,4.37-2.12,1.16-4.37,2.01-6.61,2.51-2.24.51-4.46.67-6.55.47-1.7-.17-3.3-.58-4.74-1.26.15.24.28.47.41.68.24.4.52.86.79,1.33,1.43.71,3.01,1.18,4.67,1.42,2.14.31,4.41.23,6.69-.2,2.28-.43,4.55-1.21,6.7-2.33,2.14-1.11,4.16-2.56,5.9-4.3,1.26-1.26,2.29-2.6,3.1-3.97.8-1.37,1.38-2.76,1.73-4.15.35-1.38.47-2.76.37-4.07-.09-1.13-.35-2.23-.77-3.26-.07-.17-.14-.33-.22-.5-.34-.71-.82-1.62-1.21-2.36.04.07.07.14.1.22.45.98.73,2.03.84,3.14Z" fill="#ef4444"/>
      <path d="M111.03,59.21c-.89,1.39-2.01,2.78-3.38,4.15-1.75,1.75-3.71,3.28-5.77,4.55-2.06,1.27-4.21,2.28-6.33,2.98-2.12.7-4.21,1.1-6.14,1.16-1.72.05-3.31-.18-4.68-.7.49.71.98,1.42,1.44,2.1,1.42.6,3.03.92,4.75.96,2,.06,4.15-.25,6.32-.86,2.17-.62,4.37-1.56,6.46-2.78,2.09-1.22,4.07-2.72,5.81-4.47,1.34-1.34,2.44-2.73,3.3-4.12.86-1.39,1.48-2.78,1.86-4.13.38-1.35.51-2.65.41-3.86-.11-1.21-.46-2.34-1.06-3.34l-1.39-2.21-.07-.11-.14-.21s.04.07.06.1c.55.88.87,1.9.96,3.01.09,1.15-.07,2.41-.47,3.72-.4,1.31-1.05,2.69-1.94,4.07Z" fill="#ef4444"/>
      <path d="M106.04,51.95c-.95,1.34-2.14,2.74-3.54,4.14-1.75,1.75-3.67,3.34-5.65,4.73-1.98,1.39-4.02,2.56-5.99,3.48-1.97.91-3.89,1.56-5.62,1.89-1.62.31-3.09.34-4.3.05.07.08.13.17.2.25.44.56.98,1.26,1.46,1.9,1.29.39,2.81.48,4.48.28,1.82-.21,3.81-.76,5.85-1.58,2.04-.82,4.13-1.93,6.14-3.27,2.01-1.34,3.96-2.9,5.7-4.65,1.39-1.39,2.55-2.79,3.47-4.15.92-1.36,1.61-2.69,2.06-3.95.45-1.25.65-2.43.61-3.48-.04-.94-.27-1.78-.71-2.5-.05-.09-.11-.17-.17-.25l-.57-.79-.51-.71-.75-1c.5.67.75,1.51.74,2.48,0,.98-.25,2.09-.74,3.29-.49,1.2-1.21,2.5-2.16,3.84Z" fill="#ef4444"/>
      <path d="M102.62,40.97c-.6,1.07-1.42,2.26-2.45,3.54-1.03,1.28-2.26,2.65-3.68,4.08-1.75,1.75-3.62,3.41-5.5,4.92-1.88,1.51-3.78,2.86-5.58,3.99-1.8,1.13-3.51,2.03-5.02,2.65-1.46.6-2.72.91-3.71.91.05.06.12.13.17.19.5.58,1.11,1.31,1.66,1.97,1.09.13,2.44-.06,3.98-.53,1.6-.5,3.4-1.29,5.28-2.33,1.88-1.04,3.84-2.32,5.76-3.77,1.93-1.46,3.82-3.09,5.57-4.84,1.42-1.42,2.63-2.8,3.62-4.11,1-1.31,1.77-2.55,2.32-3.67.55-1.12.87-2.14.95-3,.07-.81-.07-1.48-.43-1.99-.02-.03-.05-.07-.07-.1l-.36-.45-.28-.35-1.4-1.68c.35.41.44,1.02.3,1.8-.14.78-.52,1.71-1.12,2.78Z" fill="#ef4444"/>
      <path d="M72.96,56.91c.35.37.71.76,1.04,1.13.82-.17,1.94-.67,3.28-1.44,1.36-.78,2.94-1.84,4.63-3.09,1.69-1.25,3.5-2.71,5.32-4.29,1.82-1.58,3.66-3.28,5.41-5.03,1.43-1.43,2.7-2.79,3.77-4.03,1.07-1.24,1.96-2.37,2.63-3.35.68-.98,1.14-1.81,1.38-2.47.24-.65.25-1.13.02-1.39,0,0,0,0,0,0l-.1-.11-1.6-1.74-.53-.58s.01.02.02.03c.11.17.01.54-.29,1.07-.32.57-.85,1.32-1.59,2.24-.73.92-1.67,2-2.77,3.2-1.11,1.21-2.39,2.54-3.83,3.98-1.75,1.75-3.56,3.48-5.34,5.11-1.78,1.63-3.52,3.15-5.13,4.5-1.61,1.34-3.09,2.51-4.34,3.41-1.23.89-2.24,1.52-2.94,1.82.06.06.12.12.17.18.08.09.17.18.26.28,0,0-.01-.02-.02-.02l.53.58Z" fill="#ef4444"/>
      <path d="M69.14,52.93h0c4.15-3.93,24.58-24.22,25.84-25.74h0s-.06-.06-.06-.06c-.64-.64-1.35-1.34-1.92-1.9-.11-.11-.23-.22-.35-.33l-.07-.06s0,0,0,0c-.1-.08-.42.07-.92.43-.52.36-1.23.94-2.11,1.71-.88.77-1.93,1.73-3.12,2.85-1.19,1.13-2.52,2.42-3.95,3.85-1.75,1.75-3.5,3.54-5.16,5.29-1.66,1.75-3.23,3.44-4.64,5-1.4,1.56-2.63,2.97-3.61,4.15-.96,1.17-1.67,2.1-2.06,2.72.06.06.13.12.19.18.57.56,1.29,1.26,1.92,1.9Z" fill="#ef4444"/>
      <path d="M78.88,22.93c-1.27,1.04-2.63,2.29-4.06,3.71-1.75,1.75-3.43,3.6-4.97,5.46-1.54,1.86-2.93,3.72-4.11,5.48-1.18,1.76-2.15,3.41-2.83,4.86-.67,1.41-1.06,2.63-1.12,3.55.07.06.14.12.2.18.61.53,1.35,1.2,2.02,1.81.2-.8.72-1.9,1.51-3.21.81-1.34,1.88-2.9,3.16-4.57,1.27-1.68,2.74-3.47,4.33-5.28,1.59-1.81,3.3-3.64,5.05-5.39,1.43-1.43,2.79-2.69,4.02-3.77,1.24-1.08,2.35-1.97,3.33-2.65.97-.68,1.79-1.16,2.43-1.41.64-.25,1.09-.28,1.34-.06l-2.04-1.81-.48-.43s-.05-.04-.08-.06c-.35-.25-.88-.28-1.56-.12-.73.18-1.63.59-2.66,1.21-1.03.63-2.2,1.47-3.47,2.51Z" fill="#ef4444"/>
      <path d="M63.34,47.4s.03.01.04.02l-1.6-1.42h0s1.6,1.42,1.6,1.42c0,0-.03-.01-.04-.02Z" fill="#ef4444"/>
      <path d="M57.19,42.09c.47.39.98.8,1.44,1.19-.12-1.08.08-2.43.57-3.97.51-1.6,1.32-3.38,2.37-5.25,1.05-1.87,2.34-3.82,3.8-5.74,1.46-1.92,3.1-3.81,4.86-5.55,1.42-1.41,2.8-2.62,4.11-3.62,1.31-1,2.54-1.78,3.66-2.33,1.12-.55,2.13-.88,2.98-.96.82-.08,1.49.06,1.99.44.02.02.05.03.07.05l-.18-.14-2.26-1.8-.19-.15s-.08-.06-.12-.09c-.6-.42-1.36-.61-2.24-.59-.94.02-2.02.29-3.2.79-1.18.5-2.46,1.24-3.8,2.2-1.34.96-2.73,2.15-4.14,3.56-1.75,1.74-3.36,3.66-4.77,5.62-1.41,1.96-2.62,3.97-3.57,5.92-.95,1.94-1.65,3.82-2.03,5.52-.36,1.6-.44,3.04-.2,4.22.06.05.12.09.17.14.18.15.37.3.57.47l.17.14s-.04-.03-.07-.05Z" fill="#ef4444"/>
      <path d="M67.26,9.22c-1.29.42-2.63,1.07-3.99,1.96-1.36.89-2.74,2-4.09,3.35-1.75,1.74-3.29,3.7-4.58,5.75-1.29,2.05-2.32,4.19-3.05,6.29-.73,2.1-1.16,4.17-1.25,6.08-.08,1.71.12,3.28.61,4.64.41.29.81.58,1.15.84.34.25.7.52,1.08.81-.41-1.3-.5-2.84-.31-4.52.21-1.82.75-3.82,1.57-5.86.82-2.04,1.93-4.13,3.26-6.15,1.34-2.02,2.91-3.95,4.66-5.7,1.38-1.37,2.77-2.52,4.12-3.43,1.36-.92,2.68-1.6,3.93-2.05,1.25-.45,2.42-.66,3.48-.62,1.06.03,1.99.31,2.77.84l-2.08-1.43-.61-.42c-.08-.05-.16-.09-.24-.14-.83-.46-1.77-.71-2.79-.77-1.13-.06-2.35.12-3.64.54Z" fill="#ef4444"/>
      <path d="M46.92,30.46c-.07-2.01.22-4.17.83-6.35.61-2.18,1.54-4.38,2.76-6.47,1.22-2.09,2.72-4.07,4.47-5.81,1.31-1.31,2.68-2.39,4.04-3.23,1.36-.85,2.73-1.46,4.06-1.85,1.33-.38,2.62-.54,3.83-.45,1.2.08,2.32.4,3.32.95,0,0,.02,0,.02.01l-.06-.03-2.34-1.35-.16-.09s-.04-.02-.07-.03c-1.07-.53-2.24-.84-3.47-.94-1.26-.09-2.59.05-3.94.41-1.35.37-2.73.96-4.09,1.79-1.36.82-2.71,1.88-4,3.16-1.75,1.74-3.23,3.73-4.4,5.85-1.17,2.12-2.04,4.35-2.57,6.58-.53,2.23-.72,4.44-.55,6.51.15,1.73.55,3.35,1.23,4.81.68.43,1.37.88,2.04,1.32,0,0,.02,0,.02.01-.62-1.43-.95-3.05-1.01-4.79Z" fill="#ef4444"/>
      <path d="M42.07,31.67c.35.19.69.38,1.02.57-.72-1.44-1.21-3.03-1.45-4.7-.32-2.14-.25-4.42.17-6.7.42-2.28,1.2-4.56,2.31-6.71,1.11-2.15,2.55-4.15,4.3-5.89,1.25-1.24,2.57-2.26,3.93-3.06,1.35-.8,2.74-1.37,4.11-1.72,1.37-.35,2.74-.48,4.05-.39,1.29.09,2.53.4,3.69.92.02,0,.04.02.06.03l-.09-.04-1.85-.84-.51-.21c-.14-.06-.28-.11-.43-.17-1.1-.4-2.25-.64-3.43-.71-1.34-.08-2.71.05-4.09.4-1.37.35-2.75.91-4.08,1.69-1.33.78-2.63,1.77-3.85,2.98-1.75,1.74-3.17,3.75-4.24,5.92-1.07,2.16-1.79,4.47-2.14,6.78-.35,2.31-.33,4.63.08,6.81.3,1.61.82,3.15,1.56,4.56.22.12.44.24.66.36.02.01.04.02.07.03l.16.09Z" fill="#ef4444"/>
      <path d="M37.06,29.17c.43.19.89.4,1.31.6l.09.04s-.04-.02-.06-.03c.09.04.18.08.26.13-6.75-12.6,3.75-32.31,19.28-28.39-.72-.22-1.67-.46-2.44-.67-.09-.02-.17-.05-.26-.07-.07-.02-.14-.03-.22-.05-.37-.08-.8-.15-1.15-.19-13.09-1.7-24.29,14.8-16.83,28.63Z" fill="#ef4444"/>
      <path d="M36.4,4.87c-1.74,1.73-3.08,3.76-3.99,5.95-.92,2.19-1.42,4.54-1.5,6.91-.08,2.37.26,4.76,1.03,7.02.34.99.76,1.95,1.26,2.88.18.06.36.13.53.19.33.12.69.26,1.07.41C28.6,16.57,35.53-.49,50.77.08c.01,0,.02,0,.03,0h-.11s-.78-.06-.78-.06h-.03s-.01,0-.02,0c-.81-.03-1.89-.01-2.7,0-.97.05-1.93.19-2.88.42-.95.23-1.89.54-2.8.95-.91.4-1.8.9-2.65,1.48-.85.58-1.66,1.25-2.43,2.01Z" fill="#ef4444"/>
      <path d="M28.07,18.46c.01,2.34.46,4.7,1.34,6.93.18.45.38.89.59,1.32.44.11.89.23,1.35.36-5.16-10.01-1.03-22.12,9.93-26.03.02,0,.03-.01.05-.02-.02,0-.05.02-.07.02-.91.31-2.07.77-2.94,1.14-.48.23-1.1.58-1.59.83-.01,0-.02.01-.04.02,0,0-.02.01-.03.02-.3.17-.59.36-.88.55-.3.2-.59.41-.88.63-.29.22-.57.45-.85.69-.28.24-.55.49-.81.76-1.74,1.73-3.04,3.75-3.91,5.92-.87,2.17-1.29,4.5-1.28,6.85Z" fill="#ef4444"/>
      <path d="M27.52,26.19c.33.05.66.11.98.18-2.64-5.96-1.93-12.62,2.28-18.25l-.83,1.08c-.05.06-.09.12-.13.18-.32.46-.51.73-.75,1.14-.22.38-.49.88-.96,1.76,0,0,0,.02-.01.03l-.03.06-.18.38c-.76,1.65-1.24,3.39-1.44,5.17-.2,1.78-.13,3.59.22,5.36.19.98.48,1.96.85,2.91Z" fill="#ef4444"/>
      <path d="M26.08,25.98s.03,0,.05,0c.12.01.26.03.39.05-.27-.93-.46-1.88-.56-2.84-.13-1.22-.12-2.46.02-3.68.01-.12.03-.25.05-.37l-.04.29c-.08.63-.12.94-.14,1.43-.02.39-.03.9-.04,1.78,0,.16,0,.34,0,.53,0,.44.02.86.06,1.27.05.53.13,1.03.23,1.53Z" fill="#ef4444"/>
      <path d="M6.9,65.83s0-.02-.01-.03c-.04-.1-.07-.21-.11-.31,0-.02-.01-.03-.02-.05,0-.01,0-.03-.01-.04-.04-.12-.08-.23-.12-.34,0,0,0,0,0,0,0,0,0-.01,0-.02-.03-.11-.07-.21-.1-.32,0-.01,0-.03-.01-.05,0-.01,0-.03-.01-.04-.03-.11-.07-.22-.1-.33-.66-.5-1.25-1.04-1.8-1.61-.54-.57-1.03-1.17-1.46-1.79-.43-.63-.8-1.28-1.12-1.95-.27-.58-.5-1.17-.69-1.77.23.77.55,1.69.79,2.4.05.15.11.29.17.44,1.25,3.15,3.34,4.81,4.61,5.82Z" fill="#ef4444"/>
      <path d="M8.75,69.97s-.01-.03-.02-.04c-.07-.13-.14-.26-.2-.4,0,0,0-.01,0-.02,0-.02-.02-.03-.02-.05-.06-.12-.11-.23-.17-.34,0-.02-.02-.04-.03-.06,0-.01-.01-.03-.02-.04-.06-.13-.13-.26-.19-.39,0,0,0-.01,0-.02,0-.02-.01-.03-.02-.05-.05-.11-.1-.22-.16-.33,0-.02-.02-.04-.03-.06-2.63-1.85-3.38-3.27-4.16-4.76,0-.01-.01-.03-.02-.04.35.77.87,1.77,1.24,2.53.11.22.23.43.36.63.11.18.22.35.34.52.26.37.55.73.87,1.07.32.34.66.66,1.04.97.37.31.78.59,1.21.86Z" fill="#ef4444"/>
      <path d="M11.28,74.35c-.04-.06-.08-.12-.12-.18-.03-.04-.06-.09-.08-.13-.07-.11-.14-.23-.21-.34-.03-.04-.05-.08-.08-.13,0,0,0-.02-.01-.02-.01-.02-.02-.04-.03-.06-.08-.12-.15-.25-.22-.37-.01-.02-.02-.04-.04-.06,0-.01-.01-.02-.02-.04-.08-.14-.17-.28-.25-.42,0,0,0-.02-.01-.02-.37-.2-.71-.42-1.03-.66-.32-.23-.62-.48-.9-.75-.28-.26-.53-.54-.76-.83-.17-.21-.32-.43-.47-.66l1.26,2.05.1.17s.04.06.06.09c.15.23.32.46.51.67.21.24.44.48.69.7.25.22.52.43.81.62.29.19.6.37.93.54-.04-.06-.07-.12-.11-.17Z" fill="#ef4444"/>
      <path d="M14.38,78.9s-.02-.03-.03-.04c-.12-.17-.25-.34-.37-.51-.01-.02-.03-.04-.04-.06-.03-.05-.07-.1-.1-.15-.07-.1-.15-.2-.22-.31-.04-.06-.08-.11-.12-.17-.04-.06-.09-.13-.13-.19-.04-.05-.07-.1-.11-.16-.28-.12-.55-.25-.8-.39-.25-.14-.48-.3-.69-.47-.21-.17-.41-.35-.59-.54-.15-.16-.28-.32-.41-.49-.03-.04-.05-.07-.08-.11l.09.13,1.66,2.32c.13.18.27.34.43.5.16.16.33.3.53.43.19.13.4.26.62.37.22.11.46.21.71.3-.09-.12-.17-.23-.26-.35-.03-.04-.06-.08-.09-.12Z" fill="#ef4444"/>
      <path d="M18.17,83.81s-.08-.1-.12-.15c-.09-.11-.18-.22-.27-.33-.04-.05-.09-.11-.13-.16-.05-.07-.11-.13-.16-.2-.04-.06-.09-.11-.13-.17-.09-.11-.17-.21-.25-.32-.04-.05-.08-.1-.12-.15-.01-.02-.03-.04-.04-.06-.22-.05-.42-.11-.6-.18-.19-.07-.36-.15-.52-.25-.16-.09-.31-.2-.44-.31-.07-.06-.13-.12-.19-.18-.06-.06-.11-.13-.17-.19l.7.86,1.25,1.55.02.02s0,0,0,0c.49.55.93.64,1.65.78-.15-.18-.29-.35-.43-.53-.01-.02-.03-.03-.04-.05Z" fill="#ef4444"/>
      <path d="M22.89,89.29c-.1-.12-.21-.23-.31-.35-.05-.05-.09-.11-.14-.16-.06-.07-.12-.13-.18-.2-.05-.06-.11-.12-.16-.18-.09-.1-.19-.21-.28-.31-.05-.05-.09-.1-.14-.15-.02-.02-.04-.04-.06-.06-.16-.18-.31-.35-.47-.53-.16.01-.3.01-.43,0-.13-.01-.25-.03-.36-.06s-.21-.07-.29-.13c-.06-.04-.12-.08-.17-.13-.02-.02-.03-.03-.05-.05l1.63,1.83.51.56s.1.09.16.11.14.05.23.05c.09,0,.19,0,.3,0,.11-.01.23-.04.37-.07-.01-.02-.03-.03-.04-.05-.04-.05-.08-.09-.12-.14Z" fill="#ef4444"/>
      <path d="M27.52,94.14c-.06-.06-.12-.12-.18-.18-.1-.1-.19-.19-.29-.29-.05-.05-.11-.11-.16-.16-.02-.02-.04-.04-.07-.07-.17-.17-.34-.35-.51-.52-.01-.01-.02-.02-.03-.03-.04-.04-.07-.08-.11-.11-.12-.12-.24-.25-.36-.38-.1.07-.19.12-.27.16-.08.04-.15.08-.21.1-.06.02-.11.04-.14.04-.02,0-.04,0-.06,0,0,0-.02,0-.02-.01l1.12,1.14,1.19,1.19s0-.02.02-.04c.02-.02.04-.06.08-.1.04-.04.08-.1.14-.17.06-.07.13-.14.21-.23-.05-.05-.1-.1-.15-.15-.06-.06-.13-.13-.19-.19Z" fill="#ef4444"/>
      <path d="M33.01,100.28c-.04-.07-.06-.16-.08-.25-.02-.1-.02-.2-.02-.32,0-.12.02-.25.04-.39-.1-.09-.2-.18-.29-.27-.06-.05-.11-.1-.17-.16-.03-.02-.05-.05-.08-.07-.18-.16-.36-.33-.54-.49,0,0-.02-.02-.03-.03-.03-.03-.07-.06-.1-.09-.14-.13-.27-.25-.41-.38-.05-.04-.09-.08-.14-.13-.07-.06-.13-.12-.2-.19-.07-.06-.13-.13-.2-.19-.05.12-.09.23-.11.32-.03.1-.04.18-.05.26,0,.07,0,.14.01.19.01.05.04.09.07.12,0,0,0,0,0,0l.15.14.35.33h0s0,0,0,0l1.21,1.11.71.65s-.04-.04-.06-.06c-.03-.04-.06-.08-.09-.13Z" fill="#ef4444"/>
      <path d="M38.85,105.29c-.1-.12-.19-.26-.27-.41-.08-.15-.15-.31-.2-.49-.06-.18-.1-.36-.14-.57-.19-.15-.37-.3-.56-.45,0,0-.02-.01-.02-.02-.03-.02-.06-.05-.09-.07-.15-.12-.3-.24-.44-.37-.04-.04-.09-.07-.13-.11-.07-.06-.13-.11-.2-.17-.07-.06-.15-.12-.22-.18-.09-.08-.18-.16-.28-.23-.06-.05-.12-.1-.19-.16-.03-.03-.06-.05-.09-.08,0,.18.03.34.06.49.03.15.07.29.12.42.05.13.11.24.19.34.07.09.14.17.22.25,0,0,.02.01.02.02l.28.23.54.44,1.74,1.44c-.07-.06-.14-.12-.2-.19-.04-.05-.09-.09-.13-.14Z" fill="#ef4444"/>
      <path d="M45.32,110.3s.08.06.11.08c.03.02.05.04.08.05l-.32-.23s.09.07.13.1Z" fill="#ef4444"/>
      <path d="M44.38,109.37c-.16-.21-.32-.44-.45-.69-.14-.25-.26-.52-.37-.8-.05-.04-.1-.07-.15-.11-.09-.07-.19-.13-.28-.2-.04-.03-.07-.05-.11-.08-.05-.03-.09-.07-.14-.1-.09-.07-.19-.14-.28-.21-.04-.03-.08-.06-.12-.09-.04-.03-.09-.06-.13-.1-.1-.07-.19-.14-.29-.21-.04-.03-.09-.06-.13-.1-.04-.03-.08-.06-.12-.09-.1-.07-.19-.14-.29-.22-.05-.04-.1-.07-.15-.11.08.24.16.47.26.69.1.21.21.41.33.59.12.18.26.35.4.5.15.15.3.29.47.41l2.36,1.72c-.1-.08-.19-.16-.28-.24-.19-.18-.37-.37-.53-.58Z" fill="#ef4444"/>
      <path d="M50.79,113.9c-.31-.23-.6-.49-.87-.77-.28-.28-.53-.59-.78-.92-.24-.33-.47-.69-.67-1.08-.05-.03-.1-.06-.15-.09-.09-.05-.17-.11-.26-.16-.03-.02-.06-.03-.08-.05-.05-.03-.09-.06-.14-.09-.09-.05-.17-.11-.26-.16-.03-.02-.06-.04-.1-.06-.04-.03-.09-.06-.13-.08-.09-.06-.17-.11-.26-.17-.04-.02-.07-.05-.11-.07-.04-.03-.08-.05-.12-.08-.09-.06-.18-.11-.27-.17-.04-.03-.08-.05-.12-.08.16.34.34.66.54.96s.41.57.64.83c.23.25.47.48.72.69.06.05.12.1.18.14.2.15.41.29.62.42l1.81,1.13s-.02-.01-.02-.02c-.06-.04-.12-.09-.18-.13Z" fill="#ef4444"/>
      <path d="M55.03,116.03c-.4-.35-.78-.73-1.14-1.15-.36-.42-.7-.87-1.01-1.35-.05-.02-.09-.05-.14-.07-.08-.04-.15-.07-.23-.11-.02-.01-.04-.02-.06-.03-.04-.02-.09-.04-.13-.07-.08-.04-.15-.08-.23-.12-.02-.01-.05-.02-.07-.04-.04-.02-.08-.04-.13-.07-.08-.04-.16-.08-.23-.12-.03-.01-.06-.03-.09-.04-.04-.02-.08-.04-.12-.06-.08-.04-.16-.08-.24-.13-.03-.02-.06-.03-.1-.05.27.44.56.86.87,1.24s.64.73.98,1.06c.35.32.71.61,1.09.87.16.11.32.21.49.31.23.14.46.26.7.38l.2.1,1.41.71c-.19-.11-.38-.22-.56-.33-.43-.28-.85-.59-1.25-.94Z" fill="#ef4444"/>
      <path d="M57.17,117.48c.14.07.28.14.43.21.01,0,.02.01.04.02l-.79-.4c.11.06.22.12.33.18Z" fill="#ef4444"/>
      <path d="M63.73,120.14c-.27-.09-.56-.19-.87-.3.29.11.58.21.87.3Z" fill="#ef4444"/>
      <path d="M59.92,118.26c-.59-.42-1.16-.9-1.7-1.42s-1.05-1.11-1.52-1.75c-.04-.01-.08-.03-.12-.04-.07-.02-.13-.04-.2-.07-.01,0-.03,0-.04-.01-.04-.01-.08-.03-.12-.04-.07-.02-.13-.05-.2-.07-.02,0-.04-.01-.05-.02-.04-.01-.08-.03-.12-.04-.07-.02-.13-.05-.2-.07-.02,0-.04-.02-.06-.02-.04-.01-.07-.03-.11-.04-.07-.03-.14-.05-.21-.08-.02,0-.05-.02-.07-.03.39.55.81,1.06,1.25,1.53.44.47.91.9,1.4,1.28.49.38,1,.73,1.53,1.03.46.26.92.49,1.4.68.08.03.15.06.23.09.26.1.54.2.84.31.34.12.7.25,1.05.37-.37-.14-.74-.3-1.1-.48-.64-.31-1.26-.68-1.85-1.1Z" fill="#ef4444"/>
      <path d="M64.92,119.88c-.93-.49-1.83-1.07-2.68-1.76-.85-.68-1.65-1.47-2.39-2.35-.03,0-.07,0-.1-.01-.06,0-.11-.01-.17-.02,0,0-.02,0-.03,0-.03,0-.07,0-.1-.01-.06,0-.11-.01-.17-.02-.01,0-.02,0-.04,0-.03,0-.07-.01-.1-.02-.06,0-.11-.02-.17-.03-.01,0-.03,0-.04,0-.03,0-.07-.01-.1-.02-.06-.01-.11-.02-.17-.03-.02,0-.03,0-.05,0,.6.76,1.26,1.44,1.95,2.05.69.61,1.42,1.14,2.17,1.61.76.46,1.54.85,2.35,1.16.81.31,1.64.55,2.48.72.56.1,1.24.2,1.9.29-.56-.1-1.11-.22-1.66-.38-.99-.29-1.95-.67-2.89-1.16Z" fill="#ef4444"/>
      <path d="M69.47,121.42c.3.05.61.1.92.13.14.02.29.03.43.04-.03,0-.06,0-.09-.01-.39-.05-.82-.1-1.26-.16Z" fill="#ef4444"/>
      <path d="M80.06,120.72c-.39.11-.79.21-1.18.3.32-.08.7-.18,1.18-.3Z" fill="#ef4444"/>
      <path d="M70.77,120.78c-1.56-.43-3.07-1.07-4.5-1.94-1.43-.87-2.77-1.95-3.98-3.26-.02,0-.05.01-.08.02-.04.01-.08.02-.13.04,0,0,0,0-.01,0-.03,0-.05.01-.08.02-.04,0-.08.02-.13.03,0,0-.01,0-.02,0-.03,0-.05,0-.08.01-.04,0-.09.02-.13.02,0,0-.02,0-.03,0-.03,0-.05,0-.08.01-.04,0-.09.01-.13.02-.01,0-.02,0-.03,0,.98,1.1,2.05,2.05,3.19,2.84,1.14.79,2.35,1.43,3.6,1.91s2.54.81,3.84.98c1.3.17,2.62.19,3.92.04l.41-.05c.83-.11,1.2-.16,1.82-.3.21-.05.44-.1.73-.17-1.11.24-2.23.36-3.36.37-1.59.02-3.18-.19-4.74-.62Z" fill="#ef4444"/>
      <path d="M80.06,120.72s.01,0,.02,0l.13-.04s-.03,0-.05.01c-.03,0-.07.02-.1.03Z" fill="#ef4444"/>
      <path d="M63.93,114.5s-.02.03-.04.05c0,.01-.02.02-.03.04-.01.02-.03.03-.05.06,0,0-.01.02-.02.02,0,0,0,0-.01.01-.03.03-.06.07-.1.1-.03.03-.05.05-.08.07-.02.02-.04.03-.05.05,0,0-.01,0-.02.01,0,0,0,0-.01,0-.03.02-.06.05-.08.07-.01,0-.02.02-.04.03,0,0-.02.01-.02.02,0,0-.02.01-.03.02,3.94,4.01,13.28,9.03,23.31,2.45,0,0,0,0,0,0,0,0,0,0,.01,0,0,0,0,0,0,0,.49-.35.74-.54,1.08-.83.34-.29.78-.69,1.62-1.48.23-.24.5-.53.75-.82-.01.01-.02.03-.04.04-6.07,6.45-17.19,8.24-26.17.1Z" fill="#ef4444"/>
      <path d="M90.81,113.61c-.22.26-.44.51-.67.76.24-.27.47-.53.67-.76Z" fill="#ef4444"/>
      <path d="M94.04,107.55c-.39.79-.86,1.56-1.39,2.3-.53.74-1.13,1.45-1.8,2.12-1.73,1.74-3.77,3.06-5.96,3.96-2.19.9-4.54,1.38-6.91,1.43-2.37.05-4.75-.32-7.01-1.13-2.26-.8-4.4-2.04-6.28-3.7,0,0,0,.02,0,.03,0,.07-.02.14-.03.2,0,0,0,.01,0,.02,0,0,0,0,0,0-.01.07-.03.14-.04.21,0,0,0,.01,0,.02,0,.01,0,.03,0,.04-.01.05-.03.1-.04.15,0,.01,0,.02,0,.04,0,0,0,.02,0,.02-.02.06-.04.13-.06.19,0,0,0,0,0,0,1.86,1.72,3.99,3.01,6.23,3.87,2.25.86,4.62,1.28,6.98,1.27,2.36-.01,4.7-.46,6.88-1.33,2.18-.88,4.21-2.19,5.94-3.93.46-.46.88-.93,1.27-1.43.39-.49.75-1,1.08-1.52s.63-1.06.89-1.6c.18-.38.35-.76.5-1.15.07-.17.14-.35.2-.52.02-.07.05-.14.07-.21.19-.58.39-1.29.55-1.84,0-.01,0-.02,0-.03,0-.02,0-.04.01-.06.08-.34.16-.73.23-1.12-.1.42-.21.84-.34,1.26-.26.83-.58,1.64-.98,2.43Z" fill="#ef4444"/>
      <path d="M95.35,103.85c.08-.35.15-.71.2-1.07.01-.07.02-.13.03-.2,0,.02,0,.04-.01.07-.07.36-.14.78-.22,1.2Z" fill="#ef4444"/>
      <path d="M95.44,94.41c-.04-.26-.07-.5-.11-.73.03.17.05.33.07.5,1.95,15.49-17.36,25.3-30.89,15.44,0,0,0,.02,0,.03.02.1.04.21.06.31,0,0,0,0,0,0,0,.01,0,.03,0,.04.01.09.03.17.04.25,0,.01,0,.03,0,.04,0,.02,0,.03,0,.05.01.08.02.15.03.22,0,.02,0,.04,0,.05,0,0,0,.01,0,.02.01.1.02.19.03.28,0,0,0,0,0,.01,11.4,9.25,31.55,2.6,31.05-13.94l-.02-.24c-.07-.7-.19-1.57-.31-2.35Z" fill="#ef4444"/>
      <path d="M94.23,89.31c-.06-.19-.13-.39-.2-.6-.2-.57-.42-1.19-.63-1.74.37,1.09.58,2.23.64,3.39.06,1.34-.08,2.7-.43,4.07-.35,1.36-.92,2.72-1.69,4.04-.77,1.32-1.75,2.59-2.95,3.79-1.74,1.75-3.76,3.16-5.93,4.21-2.17,1.06-4.48,1.76-6.8,2.09-2.32.33-4.65.28-6.84-.16-2.19-.44-4.26-1.27-6.05-2.52,0,0,0,.02,0,.02.05.12.1.25.15.37,0,0,0,.02.01.03,0,.02.01.03.02.05.04.1.08.21.12.31,0,.02.01.03.02.05,0,0,0,.01,0,.02.04.12.09.24.13.36,0,0,0,.02.01.03,0,.02.01.03.02.05.04.1.07.2.1.3,0,.02.01.03.02.05,1.83,1.35,3.93,2.28,6.16,2.81,2.23.53,4.58.66,6.92.4,2.34-.26,4.68-.9,6.86-1.92,2.18-1.02,4.21-2.41,5.95-4.15,1.13-1.13,2.06-2.34,2.81-3.6.74-1.26,1.3-2.56,1.67-3.88.37-1.32.54-2.65.53-3.97-.01-1.22-.19-2.43-.52-3.6-.02-.09-.05-.17-.07-.26,0-.02-.01-.04-.02-.05Z" fill="#ef4444"/>
      <path d="M90.71,81.04c-.11-.22-.23-.44-.33-.64.04.07.07.14.1.22.45.98.73,2.03.84,3.14.12,1.29,0,2.64-.35,4.02-.36,1.38-.95,2.79-1.78,4.17-.83,1.39-1.89,2.75-3.19,4.06-1.74,1.75-3.74,3.22-5.87,4.37-2.12,1.16-4.37,2.01-6.61,2.51-2.24.51-4.46.67-6.55.47-2.08-.2-4.02-.78-5.69-1.75.01.02.02.04.03.06.07.12.13.24.19.36,0,.02.02.04.03.05,0,0,0,.02.01.02.07.14.14.27.22.41,0,.01.01.02.02.03,0,.02.02.04.03.06.06.12.12.24.18.35,0,.02.02.03.03.05,0,0,0,.01,0,.02.07.13.13.27.2.4,0,.01.01.02.02.03,1.73,1.09,3.72,1.78,5.86,2.08,2.14.31,4.41.23,6.69-.2,2.28-.43,4.55-1.21,6.7-2.33,2.14-1.11,4.16-2.56,5.9-4.3,1.26-1.26,2.29-2.6,3.1-3.97.8-1.37,1.38-2.76,1.73-4.15.35-1.38.47-2.76.37-4.07-.09-1.13-.35-2.23-.77-3.26-.05-.11-.09-.22-.14-.32-.03-.06-.05-.12-.08-.17-.25-.52-.57-1.14-.88-1.73Z" fill="#ef4444"/>
      <path d="M58.73,97.37s.03.04.04.07c.11.17.22.33.32.5,0,.01.01.02.02.03.02.04.05.07.07.11.08.12.15.24.23.36.03.04.05.09.08.13.04.06.08.12.11.18.04.06.08.12.11.18,1.56.8,3.41,1.21,5.41,1.27,2,.06,4.15-.25,6.32-.86,2.17-.62,4.37-1.56,6.46-2.78,2.09-1.22,4.07-2.72,5.81-4.47,1.34-1.34,2.44-2.73,3.3-4.12.86-1.39,1.48-2.78,1.86-4.13.38-1.35.51-2.65.41-3.86-.11-1.21-.46-2.34-1.06-3.34l-1.39-2.21-.07-.11-.14-.21s.04.07.06.1c.55.88.87,1.9.96,3.01.09,1.15-.07,2.41-.47,3.72-.4,1.31-1.05,2.69-1.94,4.07-.89,1.39-2.01,2.78-3.38,4.15-1.75,1.75-3.71,3.28-5.77,4.55-2.06,1.27-4.21,2.28-6.33,2.98-2.12.7-4.21,1.1-6.14,1.16-1.93.06-3.7-.23-5.18-.91.06.09.12.19.18.28.04.05.07.11.11.16Z" fill="#ef4444"/>
      <path d="M55.32,92.52s.05.07.08.11c.1.13.2.26.29.4.03.04.06.09.09.13.05.07.1.13.15.2.05.07.1.13.14.2.06.09.13.17.19.26.04.06.09.12.13.18.02.03.04.05.06.08,1.36.49,3.01.61,4.82.39,1.82-.21,3.81-.76,5.85-1.58,2.04-.82,4.13-1.93,6.14-3.27,2.01-1.34,3.96-2.9,5.7-4.65,1.39-1.39,2.55-2.79,3.47-4.15.92-1.36,1.61-2.69,2.06-3.95.45-1.25.65-2.43.61-3.48-.04-.94-.27-1.78-.71-2.5-.05-.09-.11-.17-.17-.25l-.57-.79-.51-.71-.75-1c.5.67.75,1.51.74,2.48,0,.98-.25,2.09-.74,3.29-.49,1.2-1.21,2.5-2.16,3.84-.95,1.35-2.14,2.74-3.54,4.14-1.75,1.75-3.67,3.34-5.65,4.73-1.98,1.39-4.01,2.56-5.99,3.48-1.97.91-3.89,1.56-5.62,1.89-1.73.33-3.29.34-4.54-.01.13.18.27.35.4.53,0,0,.01.02.02.02Z" fill="#ef4444"/>
      <path d="M76.83,66.76c-.6,1.07-1.42,2.26-2.45,3.54-1.03,1.28-2.26,2.65-3.68,4.08-1.75,1.75-3.62,3.41-5.5,4.92-1.88,1.51-3.78,2.86-5.58,3.99-1.8,1.13-3.51,2.03-5.02,2.65-1.51.62-2.81.94-3.8.91,0,0,.01.01.02.02.03.03.05.06.08.09.12.14.24.28.36.43.04.04.07.09.11.13.06.07.11.13.17.2.06.07.12.14.18.21.07.09.14.18.22.26.05.06.1.12.15.18.02.03.05.06.07.09.15.18.29.36.44.54,1.11.17,2.52-.03,4.12-.52,1.6-.5,3.4-1.29,5.28-2.33,1.88-1.04,3.83-2.32,5.76-3.77,1.93-1.46,3.82-3.09,5.57-4.84,1.42-1.42,2.63-2.8,3.62-4.11,1-1.31,1.77-2.55,2.32-3.67.55-1.12.87-2.14.95-3,.07-.81-.07-1.48-.43-1.99-.02-.03-.05-.07-.07-.1l-.36-.45-.28-.35-1.4-1.68c.35.41.44,1.02.3,1.8-.14.78-.52,1.71-1.12,2.78Z" fill="#ef4444"/>
      <path d="M46.69,82.24c.08.08.15.17.23.25.06.06.12.13.18.19.03.03.06.06.09.09.16.18.33.36.49.54,0,0,0,0,0,0,.01.02.03.03.04.05.15.16.29.32.44.48.83-.16,1.97-.67,3.33-1.45,1.36-.78,2.94-1.84,4.63-3.09,1.69-1.26,3.5-2.71,5.33-4.29,1.82-1.58,3.66-3.28,5.41-5.03,1.43-1.43,2.7-2.79,3.77-4.03,1.07-1.24,1.96-2.37,2.63-3.35.68-.98,1.14-1.81,1.38-2.47.24-.65.25-1.13.02-1.39,0,0,0,0,0,0l-.1-.11-1.6-1.74-.53-.58s.01.02.02.02c0,0,0,0,0,0,.11.17.01.54-.29,1.07-.32.57-.85,1.32-1.59,2.24-.73.92-1.67,2-2.77,3.2-.25.28-.52.56-.79.85-.92.98-1.93,2.02-3.04,3.13-.61.61-1.23,1.21-1.85,1.81-1.16,1.12-2.33,2.23-3.49,3.29-.38.35-.77.7-1.15,1.04-.06.05-.12.11-.18.17-.51.46-1.02.91-1.52,1.34-.78.68-1.54,1.34-2.28,1.95-.25.21-.49.4-.73.6-.38.31-.75.61-1.11.9-.9.72-1.75,1.37-2.5,1.91-.53.39-1.02.71-1.46,1-.59.38-1.11.67-1.51.84.04.04.07.08.11.12.06.07.13.13.19.2.07.07.13.14.2.21Z" fill="#ef4444"/>
      <path d="M41.65,77.08s.07.07.1.1c.18.17.35.35.53.52h.01c.1.12.21.22.31.32.07.07.14.13.2.2.03.03.07.07.1.1.06.06.13.13.19.19l.23.23c4.1-3.88,24.6-24.25,25.87-25.76h0s-.05-.05-.05-.05h0c-.64-.64-1.35-1.35-1.92-1.91-.06-.06-.13-.12-.19-.18-.05-.05-.1-.1-.15-.15l-.07-.06s0,0,0,0c-.1-.08-.42.07-.92.43-.52.36-1.23.94-2.11,1.71-.88.77-1.93,1.73-3.12,2.85-1.19,1.13-2.52,2.42-3.95,3.85-1.75,1.75-3.5,3.54-5.16,5.29-1.66,1.75-3.23,3.44-4.64,5-1.4,1.56-2.63,2.97-3.61,4.15-.97,1.18-1.69,2.13-2.08,2.75.08.08.16.16.24.24.06.06.13.12.19.18Z" fill="#ef4444"/>
      <path d="M42.88,65.99c1.27-1.68,2.74-3.47,4.33-5.28.36-.41.73-.82,1.1-1.24.98-1.09,2-2.17,3.04-3.23.3-.31.61-.62.91-.93,1.43-1.43,2.79-2.69,4.02-3.77.51-.44.99-.84,1.45-1.22.67-.54,1.3-1.03,1.87-1.43.32-.22.61-.42.9-.6.58-.37,1.1-.65,1.53-.82.47-.19.84-.25,1.1-.18,0,0,.01,0,.02,0,.07.02.13.06.19.1.01,0,.03.01.04.02l-1.6-1.42-.44-.39-.48-.43s-.05-.04-.08-.06c-.35-.25-.88-.28-1.56-.12-.73.18-1.63.59-2.66,1.21-1.03.63-2.2,1.47-3.47,2.51-1.27,1.04-2.63,2.29-4.06,3.71-1.75,1.75-3.43,3.6-4.97,5.46-1.54,1.86-2.93,3.72-4.11,5.48-1.18,1.76-2.15,3.41-2.83,4.86-.68,1.45-1.08,2.69-1.13,3.62.17.15.35.31.52.46.01,0,.02.02.03.03,0,0,0,0,0,0,0,0,.01.01.02.02.18.16.36.32.54.48.03.03.07.06.1.09.07.06.13.12.2.18.08.07.17.15.25.22.08.07.15.14.23.21.07.06.14.12.2.18.04.04.08.07.12.11.07-.3.2-.65.36-1.03.27-.65.66-1.39,1.17-2.24.06-.11.14-.23.21-.34.53-.86,1.16-1.8,1.89-2.8.34-.47.69-.95,1.06-1.44Z" fill="#ef4444"/>
      <path d="M44.44,48.57c1.42-1.41,2.8-2.62,4.11-3.62,1.31-1,2.54-1.78,3.66-2.33,1.12-.55,2.13-.88,2.98-.96.82-.08,1.49.06,1.99.44.02.02.05.03.07.05l-.17-.14-2.26-1.8-.19-.15s-.08-.06-.12-.09c-.6-.42-1.36-.61-2.24-.59-.94.02-2.02.29-3.2.79-1.18.5-2.46,1.24-3.8,2.2-1.34.96-2.73,2.15-4.14,3.56-1.75,1.74-3.36,3.66-4.77,5.62-1.41,1.96-2.62,3.97-3.57,5.92-.95,1.94-1.65,3.82-2.03,5.52-.38,1.69-.45,3.21-.15,4.42.19.15.38.3.57.44.03.03.07.05.1.08.07.05.13.11.2.16.09.07.18.14.27.21.08.06.15.12.23.18.07.06.14.11.21.17.04.03.08.07.13.1.16.13.31.25.47.38.03.02.06.04.08.07,0,0,.01,0,.02.01-.15-1.1.06-2.5.56-4.1.51-1.6,1.32-3.38,2.37-5.25,1.05-1.87,2.34-3.82,3.8-5.74,1.46-1.92,3.1-3.81,4.86-5.55Z" fill="#ef4444"/>
      <path d="M36.53,42.5c1.38-1.37,2.77-2.52,4.12-3.43,1.36-.92,2.68-1.6,3.93-2.05,1.25-.45,2.42-.66,3.48-.62,1.06.03,1.99.31,2.77.84l-2.08-1.43-.61-.42c-.07-.04-.14-.08-.21-.12,0,0-.02,0-.02-.01-.83-.46-1.77-.71-2.79-.77-1.13-.06-2.35.12-3.64.54-1.29.42-2.63,1.07-3.99,1.96-1.36.89-2.74,2-4.09,3.35-1.75,1.74-3.29,3.7-4.58,5.75-1.29,2.05-2.32,4.19-3.05,6.29-.73,2.1-1.16,4.17-1.25,6.08-.09,1.91.16,3.65.8,5.11.05.04.11.07.16.11.09.06.19.13.28.19.03.02.06.04.09.06.05.03.1.07.15.1.09.07.19.13.29.2.03.02.07.05.1.07.05.03.09.07.14.1.1.07.19.13.29.2.04.03.08.05.11.08.04.03.09.06.13.09.1.07.19.14.29.21.04.03.09.06.13.09-.5-1.36-.62-3.02-.41-4.84.21-1.82.75-3.82,1.57-5.86.82-2.04,1.93-4.13,3.26-6.15,1.34-2.01,2.91-3.95,4.66-5.7Z" fill="#ef4444"/>
      <path d="M20.66,60.65c.09.05.18.1.27.15.02,0,.03.02.05.03.05.03.1.06.16.09.09.05.18.1.26.15.02.01.04.02.06.04.05.03.1.06.15.09.09.05.17.1.26.16.02.01.05.03.07.04.05.03.09.06.14.09.09.05.18.11.26.16.03.02.06.04.09.05-.82-1.58-1.24-3.44-1.31-5.44-.07-2.01.22-4.17.83-6.35.61-2.18,1.54-4.38,2.76-6.47,1.22-2.09,2.72-4.07,4.47-5.81,1.31-1.31,2.67-2.39,4.04-3.23,1.36-.85,2.73-1.46,4.06-1.85,1.33-.38,2.62-.54,3.83-.45,1.2.08,2.32.4,3.32.95,0,0,.02,0,.02.01l-.06-.03-2.34-1.35-.16-.09s-.04-.02-.07-.03c-1.07-.53-2.23-.84-3.47-.94-1.26-.09-2.59.05-3.94.41-1.35.37-2.73.96-4.09,1.79-1.36.82-2.71,1.88-4,3.16-1.75,1.74-3.23,3.73-4.4,5.85-1.17,2.12-2.04,4.35-2.57,6.58-.53,2.23-.72,4.44-.55,6.51.18,2.07.72,4,1.66,5.65.05.03.11.06.16.09Z" fill="#ef4444"/>
      <path d="M38.38,29.77l-1.85-.84-.51-.21c-.14-.06-.28-.11-.43-.17-1.1-.4-2.25-.64-3.43-.71-1.34-.08-2.71.05-4.09.4-1.37.35-2.75.91-4.08,1.69-1.33.78-2.63,1.77-3.85,2.98-1.75,1.74-3.17,3.75-4.24,5.92s-1.79,4.47-2.14,6.78c-.35,2.31-.33,4.63.08,6.81.41,2.18,1.21,4.24,2.42,6.02.03.01.06.03.09.04.1.04.2.09.3.13,0,0,.01,0,.02,0,.04.02.09.04.14.06.09.04.17.08.26.12,0,0,.02,0,.03.01.05.02.1.05.14.07.08.04.16.07.24.11.01,0,.03.01.04.02.05.02.1.05.14.07.08.04.16.08.24.12.02,0,.03.02.05.02-1.1-1.73-1.8-3.74-2.12-5.88-.32-2.14-.25-4.42.17-6.7.42-2.28,1.2-4.56,2.31-6.71s2.55-4.15,4.3-5.89c1.25-1.24,2.57-2.26,3.93-3.06,1.35-.8,2.74-1.37,4.11-1.72,1.37-.35,2.74-.48,4.05-.39,1.29.09,2.53.4,3.69.92.02,0,.04.02.06.03l-.09-.04Z" fill="#ef4444"/>
      <path d="M32.16,27.31c-.72-.22-1.67-.46-2.44-.67-.09-.02-.17-.05-.26-.07-.07-.02-.14-.03-.22-.05-.37-.08-.8-.15-1.15-.2-13.81-1.79-25.53,16.67-15.45,30.87,0,0,.01,0,.02,0,.08.02.15.04.23.06.03,0,.06.02.1.02,0,0,0,0,0,0,.11.03.23.06.34.1,0,0,0,0,0,0,.01,0,.02,0,.04.01.1.03.21.06.31.09,0,0,0,0,.01,0,.04.01.07.02.11.04.08.02.16.05.24.07,0,0,.01,0,.02,0-.2-.29-.48-.68-.66-.98-7.82-12.53,2.82-33.35,18.75-29.32Z" fill="#ef4444"/>
      <path d="M10.61,30.66c-1.74,1.73-3.08,3.76-3.99,5.95-.92,2.19-1.42,4.54-1.5,6.91s.26,4.76,1.03,7.02c.77,2.27,1.96,4.41,3.59,6.29,0,0,.02,0,.03,0,.05,0,.1,0,.15,0,.03,0,.06,0,.09,0,0,0,.02,0,.02,0,.05,0,.11,0,.16,0,.03,0,.06,0,.09,0,0,0,.01,0,.02,0,.06,0,.12,0,.18,0,.03,0,.06,0,.09,0,0,0,0,0,0,0,.08,0,.17.01.25.02.01,0,.02,0,.03,0-9.19-11.5-2.42-31.63,14.11-31.02.01,0,.02,0,.03,0h-.11s-.78-.06-.78-.06h-.03s-.01,0-.02,0c-.81-.03-1.89-.01-2.69,0,0,0,0,0,0,0,0,0,0,0,0,0-.97.05-1.93.19-2.88.42-.95.23-1.89.54-2.8.95-.91.4-1.8.9-2.65,1.48s-1.66,1.25-2.43,2.01Z" fill="#ef4444"/>
      <path d="M2.28,44.25c.01,2.34.46,4.7,1.34,6.93.89,2.23,2.21,4.34,3.97,6.19.01,0,.02-.01.03-.02.03-.02.07-.03.1-.05.02,0,.04-.02.06-.03,0,0,.02,0,.03-.01.03-.02.07-.03.11-.05.02,0,.04-.02.06-.03,0,0,.02,0,.02,0,.04-.01.07-.03.11-.04.02,0,.04-.02.07-.03,0,0,.01,0,.02,0,.04-.01.08-.03.12-.04.02,0,.05-.02.07-.02C-.64,46.54,2.95,31.31,15.5,26.84c.02,0,.03-.01.05-.02-.02,0-.05.02-.07.02-.91.31-2.07.77-2.94,1.14-.48.23-1.1.58-1.59.83-.01,0-.02.01-.04.02,0,0-.02.01-.03.02-.3.17-.59.36-.88.55-.3.2-.59.41-.88.63-.29.22-.57.45-.85.69-.28.24-.55.49-.81.76-1.74,1.73-3.05,3.75-3.91,5.92-.87,2.17-1.29,4.5-1.28,6.85Z" fill="#ef4444"/>
      <path d="M2.75,54.23c.9,1.64,2.08,3.19,3.52,4.57,0,0,.01-.02.01-.03.02-.05.04-.09.07-.14,0,0,0-.02.01-.03,0,0,.01-.02.02-.03.02-.04.05-.08.07-.12,0-.01.01-.02.02-.03,0,0,0,0,0-.01.03-.05.07-.1.1-.15,0,0,0,0,0,0,0,0,.01-.01.02-.02.03-.04.06-.08.09-.12,0,0,.01-.01.02-.02C0,51.03-.7,41.57,4.93,33.98c.02-.03.04-.05.06-.08l-.13.17-.6.79-.1.13c-.05.06-.09.12-.13.18-.32.46-.51.73-.75,1.14-.22.38-.49.88-.96,1.76,0,0,0,.02-.01.03l-.03.06-.18.38c-.76,1.65-1.24,3.39-1.44,5.17-.2,1.78-.13,3.59.22,5.36.35,1.78.98,3.52,1.88,5.16Z" fill="#ef4444"/>
      <path d="M5.86,61.11s0-.03,0-.04c0-.07,0-.13,0-.2,0-.01,0-.03,0-.05,0,0,0,0,0-.01,0-.08,0-.17,0-.25,0,0,0,0,0-.01,0-.01,0-.03,0-.04,0-.06,0-.13.01-.19,0-.01,0-.02,0-.04,0-.01,0-.03,0-.04,0-.06.01-.12.02-.17,0-.01,0-.03,0-.04-1.13-1.02-2.1-2.13-2.9-3.32-.8-1.19-1.44-2.44-1.92-3.74-.48-1.3-.79-2.63-.93-3.98-.13-1.22-.13-2.46.02-3.68.01-.12.03-.25.05-.37l-.04.29c-.08.63-.12.94-.14,1.43-.02.39-.03.9-.04,1.78,0,.16,0,.34,0,.53,0,.44.02.86.06,1.27.54,5.96,4.46,9.61,5.8,10.86Z" fill="#ef4444"/>
      <path d="M.48,53.6s0,.03,0,.05c.06.34.13.68.22,1.02.02.07.04.14.06.22-.11-.45-.2-.89-.28-1.28,0,0,0,0,0,0Z" fill="#ef4444"/>
      <path d="M3.15,60.89c.43.63.91,1.23,1.46,1.79.54.57,1.14,1.11,1.8,1.61-.03-.11-.06-.22-.09-.33,0-.01,0-.02,0-.03,0-.02-.01-.04-.02-.07-.02-.08-.04-.16-.06-.23,0-.02-.01-.04-.02-.06,0-.02,0-.03-.01-.05-.02-.08-.04-.17-.06-.25,0-.02,0-.04-.01-.06,0,0,0,0,0-.01-.02-.1-.04-.21-.06-.31,0,0,0-.01,0-.02-.78-.63-1.48-1.3-2.1-2.01-.62-.71-1.16-1.47-1.63-2.25-.47-.78-.85-1.6-1.16-2.44-.16-.42-.29-.85-.41-1.28.16.69.34,1.4.49,1.99.02.06.04.13.06.19.01.03.02.07.03.1.19.6.42,1.19.69,1.77.32.67.69,1.32,1.12,1.95Z" fill="#ef4444"/>
    </g>
  </g>
</svg>