<?xml version="1.0" encoding="UTF-8"?>
<svg id="Layer_2" data-name="Layer 2" xmlns="http://www.w3.org/2000/svg" viewBox="0 0 124.51 124.59">
  <g id="Graphic_Elements" data-name="Graphic Elements">
    <g opacity=".9">
      <ellipse cx="62.25" cy="62.29" rx="61.75" ry="61.79" fill="none" stroke="#ef4444" stroke-miterlimit="10"/>
      <path d="M122.6,60.96c.05,3.1-.07,6.12-.43,9.1-.9,7.36-3.26,14.43-6.84,20.72-2.35,4.13-5.12,7.92-8.13,11.44-3.04,3.57-6.45,6.75-10.33,9.52-4.54,3.23-9.61,5.79-15.05,7.49-3.7,1.16-7.54,1.94-11.46,2.33-2.5.24-5.03.32-7.62.26-3.5-.07-6.94-.41-10.31-.98-1.95-.33-3.86-.74-5.74-1.23-9.02-2.36-17.33-6.62-24.07-12.79-2.12-1.95-4.11-4.04-5.97-6.25-2.22-2.63-4.27-5.41-6.08-8.32-1.8-2.9-3.34-5.94-4.65-9.13-1.08-2.65-1.96-5.4-2.61-8.24-.96-4.21-1.41-8.61-1.32-13.12.06-3.55.43-7.03,1.04-10.43,1.68-9.43,5.1-18.1,10.48-25.58,3.73-5.17,8.36-9.67,13.58-13.32,5.18-3.62,10.95-6.42,17.13-8.31,5.8-1.77,11.97-2.78,18.32-2.87,10.48-.16,20.34,2.44,28.99,7.12,8.75,4.74,16.19,11.63,21.56,19.99,6.04,9.42,9.31,20.63,9.49,32.61Z" fill="none" stroke="#ef4444" stroke-miterlimit="10"/>
      <path d="M121.18,59.63c.1,3.05.11,6-.16,8.92-.67,7.22-2.91,14.29-6.5,20.51-2.37,4.1-5.1,7.81-7.92,11.37-2.83,3.58-5.98,6.78-9.75,9.59-4.41,3.28-9.42,5.85-14.84,7.46-3.68,1.1-7.47,1.76-11.32,2.03-2.45.17-4.93.15-7.46.04-3.4-.15-6.78-.51-10.08-1.06-1.91-.32-3.79-.69-5.64-1.15-8.82-2.2-17.1-6.09-23.61-12.27-2.04-1.94-3.94-4.01-5.77-6.18-2.17-2.59-4.22-5.27-6.04-8.07-1.81-2.78-3.37-5.69-4.72-8.74-1.13-2.56-2.04-5.22-2.69-7.99-.97-4.11-1.35-8.43-1.18-12.85.13-3.47.55-6.87,1.16-10.21,1.69-9.27,4.66-17.79,9.89-25.21,3.62-5.12,8.23-9.52,13.4-13.03,5.13-3.48,10.82-6.12,16.91-7.92,5.71-1.69,11.8-2.68,18-2.88,10.14-.32,19.71,2.1,28.17,6.56,8.54,4.52,15.83,11.2,21.01,19.34,5.85,9.19,8.77,20.11,9.14,31.73Z" fill="none" stroke="#ef4444" stroke-miterlimit="10"/>
      <path d="M119.77,58.3c.15,3,.28,5.87.11,8.73-.44,7.08-2.56,14.15-6.16,20.3-2.39,4.07-5.09,7.7-7.72,11.3-2.62,3.58-5.51,6.81-9.17,9.66-4.27,3.33-9.23,5.92-14.63,7.42-3.65,1.03-7.41,1.59-11.18,1.74-2.41.09-4.82-.02-7.3-.18-3.31-.22-6.61-.61-9.86-1.14-1.87-.31-3.72-.65-5.53-1.07-8.63-2.01-16.87-5.56-23.15-11.76-1.95-1.93-3.78-3.99-5.56-6.12-2.12-2.54-4.18-5.14-6.01-7.81-1.82-2.66-3.4-5.43-4.79-8.36-1.17-2.47-2.12-5.04-2.77-7.73-.98-4.01-1.3-8.25-1.05-12.58.19-3.39.67-6.71,1.28-9.99,1.7-9.12,4.22-17.48,9.29-24.84,3.5-5.06,8.09-9.36,13.21-12.73,5.08-3.34,10.7-5.82,16.69-7.52,5.63-1.6,11.62-2.59,17.68-2.88,9.81-.47,19.08,1.76,27.35,6.01,8.33,4.31,15.46,10.76,20.47,18.69,5.65,8.96,8.24,19.59,8.79,30.86Z" fill="none" stroke="#ef4444" stroke-miterlimit="10"/>
      <path d="M118.35,56.96c.19,2.96.45,5.74.37,8.55-.21,6.94-2.21,14.02-5.82,20.09-2.41,4.04-5.07,7.59-7.51,11.23-2.41,3.59-5.04,6.83-8.59,9.74-4.14,3.39-9.04,5.99-14.42,7.39-3.63.96-7.34,1.42-11.04,1.44-2.36.02-4.71-.18-7.15-.4-3.21-.29-6.44-.72-9.63-1.23-1.84-.29-3.65-.6-5.42-.99-8.44-1.84-16.64-5.02-22.7-11.25-1.87-1.92-3.61-3.96-5.36-6.06-2.07-2.5-4.13-5-5.97-7.56-1.83-2.54-3.43-5.17-4.86-7.97-1.22-2.37-2.19-4.86-2.84-7.47-.98-3.9-1.24-8.06-.91-12.31.26-3.31.79-6.55,1.4-9.78,1.71-8.96,3.78-17.16,8.7-24.48,3.39-5,7.96-9.2,13.02-12.43,5.03-3.2,10.58-5.52,16.47-7.13,5.54-1.51,11.45-2.5,17.36-2.89,9.47-.63,18.44,1.42,26.53,5.46,8.12,4.09,15.09,10.32,19.93,18.04,5.46,8.73,7.72,19.08,8.44,29.98Z" fill="none" stroke="#ef4444" stroke-miterlimit="10"/>
      <path d="M116.94,55.63c.25,2.91.62,5.61.64,8.37.02,6.8-1.86,13.88-5.48,19.88-2.43,4.01-5.06,7.48-7.31,11.16-2.2,3.59-4.57,6.86-8,9.81-4.01,3.44-8.85,6.05-14.21,7.36-3.6.89-7.28,1.25-10.89,1.15-2.32-.06-4.6-.35-6.99-.63-3.12-.36-6.27-.82-9.4-1.31-1.8-.28-3.58-.56-5.32-.91-8.24-1.67-16.41-4.49-22.24-10.73-1.79-1.91-3.45-3.94-5.15-6-2.03-2.45-4.08-4.86-5.94-7.3-1.84-2.42-3.46-4.92-4.94-7.58-1.26-2.28-2.27-4.68-2.92-7.22-.99-3.8-1.19-7.88-.77-12.04.32-3.23.91-6.39,1.53-9.56,1.72-8.8,3.32-16.86,8.1-24.11,3.27-4.95,7.82-9.04,12.83-12.13,4.98-3.07,10.45-5.21,16.25-6.73,5.46-1.42,11.27-2.4,17.03-2.9,9.13-.78,17.82,1.07,25.7,4.91,7.91,3.86,14.73,9.89,19.39,17.39,5.27,8.5,7.2,18.57,8.09,29.11Z" fill="none" stroke="#ef4444" stroke-miterlimit="10"/>
      <path d="M115.52,54.3c.3,2.86.8,5.48.9,8.19.26,6.66-1.52,13.74-5.14,19.67-2.45,3.98-5.04,7.37-7.11,11.09-1.99,3.59-4.1,6.89-7.42,9.88-3.88,3.49-8.67,6.11-14,7.32-3.58.82-7.21,1.07-10.75.86-2.27-.14-4.5-.51-6.83-.85-3.02-.43-6.1-.92-9.17-1.39-1.76-.27-3.51-.52-5.21-.84-8.04-1.5-16.18-3.96-21.79-10.22-1.7-1.9-3.29-3.91-4.95-5.93-1.98-2.41-4.04-4.73-5.9-7.05-1.86-2.3-3.49-4.66-5.01-7.2-1.31-2.19-2.34-4.5-3-6.96-.99-3.7-1.14-7.7-.64-11.77.39-3.15,1.03-6.23,1.65-9.34,1.73-8.65,2.88-16.55,7.51-23.75,3.15-4.89,7.69-8.88,12.65-11.83,4.93-2.93,10.33-4.91,16.03-6.34,5.37-1.33,11.09-2.31,16.71-2.9,8.79-.93,17.18.72,24.88,4.36,7.7,3.64,14.36,9.45,18.85,16.74,5.08,8.27,6.68,18.06,7.74,28.24Z" fill="none" stroke="#ef4444" stroke-miterlimit="10"/>
      <path d="M114.11,52.97c.35,2.81.97,5.35,1.17,8,.5,6.52-1.17,13.61-4.8,19.46-2.47,3.95-5.03,7.25-6.9,11.02-1.78,3.59-3.63,6.91-6.84,9.96-3.75,3.55-8.48,6.18-13.79,7.29-3.56.75-7.15.9-10.61.56-2.22-.21-4.39-.68-6.68-1.07-2.93-.5-5.93-1.02-8.95-1.47-1.73-.26-3.44-.48-5.11-.76-7.85-1.32-15.95-3.42-21.33-9.71-1.62-1.89-3.12-3.88-4.74-5.87-1.93-2.37-3.99-4.59-5.87-6.79-1.87-2.18-3.53-4.41-5.08-6.81-1.36-2.1-2.42-4.32-3.08-6.71-1-3.6-1.09-7.52-.5-11.5.45-3.07,1.15-6.07,1.77-9.12,1.74-8.49,2.44-16.24,6.91-23.38,3.03-4.84,7.55-8.73,12.46-11.53,4.88-2.79,10.2-4.61,15.81-5.94,5.29-1.25,10.92-2.21,16.39-2.91,8.45-1.07,16.55.38,24.06,3.81,7.5,3.43,13.99,9.01,18.31,16.09,4.89,8.04,6.17,17.55,7.38,27.36Z" fill="none" stroke="#ef4444" stroke-miterlimit="10"/>
      <path d="M112.7,51.64c.4,2.76,1.14,5.23,1.43,7.82.73,6.38-.82,13.47-4.45,19.25-2.48,3.92-5.02,7.13-6.7,10.95-1.58,3.59-3.16,6.94-6.26,10.03-3.61,3.6-8.29,6.24-13.58,7.26-3.53.68-7.08.72-10.46.27-2.18-.29-4.28-.84-6.52-1.29-2.83-.57-5.77-1.13-8.72-1.56-1.69-.25-3.36-.43-5-.68-7.65-1.15-15.72-2.88-20.88-9.19-1.54-1.88-2.96-3.86-4.54-5.81-1.88-2.32-3.94-4.46-5.83-6.53-1.88-2.07-3.56-4.15-5.16-6.42-1.41-2.01-2.49-4.14-3.15-6.45-1.01-3.5-1.04-7.33-.37-11.23.51-2.99,1.27-5.91,1.89-8.9,1.75-8.33,1.99-15.93,6.32-23.01,2.92-4.78,7.42-8.57,12.27-11.24,4.83-2.65,10.08-4.31,15.6-5.55,5.2-1.16,10.74-2.11,16.07-2.91,8.11-1.22,15.92.04,23.24,3.26,7.28,3.21,13.63,8.58,17.77,15.44,4.7,7.81,5.66,17.04,7.03,26.49Z" fill="none" stroke="#ef4444" stroke-miterlimit="10"/>
      <path d="M111.28,50.3c.46,2.72,1.31,5.1,1.7,7.64.96,6.24-.46,13.34-4.11,19.04-2.49,3.89-5.01,7.01-6.5,10.88-1.38,3.58-2.69,6.97-5.68,10.1-3.48,3.65-8.1,6.31-13.37,7.22-3.51.61-7.02.55-10.32-.02-2.13-.37-4.17-1-6.36-1.51-2.73-.64-5.6-1.23-8.49-1.64-1.65-.24-3.29-.39-4.9-.6-7.46-.98-15.49-2.34-20.42-8.68-1.45-1.87-2.8-3.83-4.33-5.75-1.83-2.28-3.9-4.32-5.8-6.28-1.89-1.95-3.6-3.89-5.23-6.04-1.46-1.92-2.57-3.96-3.23-6.19-1.01-3.4-.99-7.15-.23-10.96.58-2.91,1.39-5.75,2.02-8.68,1.76-8.18,1.55-15.62,5.72-22.65,2.8-4.72,7.28-8.41,12.08-10.94,4.78-2.51,9.96-4.01,15.38-5.15,5.12-1.07,10.56-2.01,15.75-2.92,7.77-1.36,15.28-.3,22.41,2.71,7.07,2.99,13.26,8.14,17.23,14.79,4.51,7.59,5.16,16.53,6.68,25.61Z" fill="none" stroke="#ef4444" stroke-miterlimit="10"/>
      <path d="M109.87,48.97c.51,2.67,1.48,4.97,1.97,7.46,1.19,6.1-.11,13.2-3.77,18.83-2.51,3.86-5,6.89-6.29,10.81-1.18,3.57-2.22,6.99-5.09,10.18-3.35,3.71-7.91,6.37-13.16,7.19-3.49.54-6.95.37-10.18-.32-2.09-.44-4.06-1.16-6.21-1.74-2.64-.7-5.43-1.33-8.26-1.72-1.62-.23-3.22-.35-4.79-.52-7.26-.82-15.27-1.8-19.97-8.16-1.37-1.86-2.63-3.81-4.13-5.69-1.78-2.24-3.85-4.19-5.76-6.02-1.9-1.83-3.64-3.64-5.3-5.65-1.51-1.82-2.64-3.78-3.31-5.94-1.02-3.3-.94-6.97-.09-10.68.64-2.82,1.51-5.59,2.14-8.46,1.77-8.02,1.11-15.3,5.13-22.28,2.69-4.67,7.14-8.25,11.9-10.64,4.73-2.37,9.83-3.71,15.16-4.76,5.03-.98,10.38-1.91,15.42-2.92,7.43-1.49,14.65-.65,21.59,2.16,6.86,2.77,12.89,7.7,16.69,14.14,4.32,7.36,4.66,16.02,6.33,24.74Z" fill="none" stroke="#ef4444" stroke-miterlimit="10"/>
      <path d="M108.45,47.64c.57,2.62,1.65,4.84,2.23,7.27,1.42,5.96.24,13.07-3.43,18.63-2.53,3.83-5,6.77-6.09,10.74-.98,3.56-1.75,7.02-4.51,10.25-3.22,3.76-7.72,6.44-12.95,7.16-3.46.48-6.89.19-10.03-.61-2.04-.52-3.95-1.32-6.05-1.96-2.54-.77-5.26-1.43-8.04-1.8-1.58-.21-3.15-.31-4.68-.45-7.06-.65-15.04-1.26-19.51-7.65-1.29-1.85-2.47-3.78-3.92-5.62-1.73-2.19-3.81-4.05-5.73-5.77-1.92-1.71-3.68-3.38-5.37-5.26-1.56-1.73-2.72-3.6-3.39-5.68-1.03-3.19-.89-6.78.04-10.41.7-2.74,1.62-5.43,2.26-8.24,1.78-7.86.67-14.99,4.54-21.92,2.57-4.61,7.01-8.09,11.71-10.34,4.68-2.23,9.71-3.4,14.94-4.36,4.95-.9,10.2-1.81,15.1-2.93,7.09-1.62,14.02-.99,20.77,1.61,6.65,2.56,12.53,7.27,16.14,13.49,4.13,7.13,4.17,15.51,5.98,23.86Z" fill="none" stroke="#ef4444" stroke-miterlimit="10"/>
      <path d="M107.04,46.31c.63,2.58,1.82,4.71,2.5,7.09,1.65,5.82.59,12.93-3.09,18.42-2.55,3.8-5,6.64-5.89,10.67-.78,3.55-1.28,7.05-3.93,10.32-3.09,3.81-7.54,6.51-12.74,7.12-3.44.41-6.82.02-9.89-.9-2-.6-3.84-1.48-5.89-2.18-2.44-.83-5.09-1.53-7.81-1.89-1.54-.2-3.08-.26-4.58-.37-6.86-.48-14.82-.72-19.06-7.14-1.21-1.83-2.3-3.76-3.72-5.56-1.68-2.15-3.76-3.91-5.69-5.51-1.93-1.59-3.72-3.12-5.45-4.88-1.62-1.64-2.79-3.42-3.47-5.43-1.04-3.09-.84-6.6.18-10.14.76-2.66,1.74-5.27,2.38-8.02,1.8-7.71.23-14.68,3.94-21.55,2.46-4.55,6.87-7.94,11.52-10.04,4.63-2.09,9.58-3.1,14.72-3.96,4.86-.81,10.02-1.7,14.78-2.94,6.75-1.75,13.38-1.33,19.95,1.06,6.44,2.34,12.16,6.83,15.6,12.84,3.93,6.9,3.68,15,5.63,22.99Z" fill="none" stroke="#ef4444" stroke-miterlimit="10"/>
      <path d="M105.62,44.98c.69,2.53,1.99,4.58,2.76,6.91,1.88,5.68.94,12.79-2.75,18.21-2.57,3.77-5,6.52-5.68,10.6-.59,3.54-.81,7.07-3.35,10.39-2.96,3.87-7.35,6.57-12.53,7.09-3.41.34-6.76-.16-9.75-1.2-1.95-.68-3.74-1.64-5.74-2.4-2.35-.89-4.92-1.64-7.58-1.97-1.51-.19-3.01-.22-4.47-.29-6.67-.31-14.6-.17-18.6-6.62-1.13-1.82-2.14-3.73-3.51-5.5-1.64-2.1-3.71-3.78-5.66-5.26-1.94-1.47-3.76-2.86-5.52-4.49-1.67-1.54-2.87-3.24-3.54-5.17-1.04-2.99-.79-6.42.31-9.87.82-2.58,1.86-5.11,2.51-7.8,1.81-7.55-.21-14.36,3.35-21.18,2.34-4.49,6.74-7.78,11.33-9.74,4.58-1.95,9.46-2.8,14.5-3.57,4.78-.72,9.84-1.59,14.46-2.94,6.41-1.87,12.75-1.67,19.13.51,6.23,2.13,11.79,6.4,15.06,12.19,3.74,6.67,3.21,14.49,5.28,22.11Z" fill="none" stroke="#ef4444" stroke-miterlimit="10"/>
      <path d="M104.21,43.64c.75,2.48,2.16,4.45,3.03,6.73,2.11,5.54,1.28,12.66-2.41,18-2.59,3.74-5.01,6.39-5.48,10.53-.4,3.53-.34,7.1-2.76,10.47-2.82,3.92-7.16,6.64-12.32,7.06-3.39.27-6.69-.34-9.61-1.49-1.91-.75-3.63-1.8-5.58-2.62-2.25-.95-4.76-1.74-7.36-2.05-1.47-.18-2.93-.18-4.37-.21-6.47-.15-14.38.37-18.15-6.11-1.05-1.81-1.98-3.71-3.31-5.44-1.59-2.06-3.67-3.64-5.62-5-1.95-1.35-3.8-2.6-5.59-4.1-1.73-1.45-2.95-3.06-3.62-4.92-1.05-2.89-.74-6.23.45-9.6.88-2.5,1.98-4.95,2.63-7.58,1.82-7.39-.65-14.05,2.75-20.82,2.23-4.44,6.6-7.62,11.14-9.44,4.53-1.81,9.34-2.5,14.28-3.17,4.69-.63,9.66-1.48,14.14-2.95,6.07-1.99,12.12-2.01,18.3-.04,6.02,1.91,11.43,5.96,14.52,11.54,3.55,6.44,2.73,13.98,4.93,21.24Z" fill="none" stroke="#ef4444" stroke-miterlimit="10"/>
      <path d="M102.8,42.31c.81,2.43,2.33,4.33,3.29,6.55,2.33,5.4,1.63,12.52-2.07,17.79-2.61,3.71-5.02,6.26-5.27,10.46-.22,3.52.13,7.12-2.18,10.54-2.69,3.97-6.97,6.71-12.1,7.02-3.37.21-6.62-.51-9.46-1.78-1.86-.83-3.52-1.95-5.43-2.85-2.16-1.01-4.59-1.84-7.13-2.13-1.43-.17-2.86-.14-4.26-.14-6.27.02-14.16.92-17.69-5.6-.97-1.79-1.81-3.68-3.1-5.38-1.54-2.02-3.62-3.51-5.59-4.75-1.96-1.23-3.85-2.34-5.67-3.72-1.79-1.35-3.02-2.88-3.7-4.66-1.06-2.79-.69-6.05.59-9.33.94-2.42,2.1-4.79,2.75-7.36,1.83-7.24-1.09-13.74,2.16-20.45,2.12-4.38,6.47-7.46,10.96-9.15,4.48-1.67,9.21-2.2,14.06-2.78,4.61-.54,9.48-1.36,13.81-2.95,5.73-2.11,11.48-2.35,17.48-.59,5.81,1.7,11.06,5.52,13.98,10.89,3.36,6.21,2.27,13.46,4.57,20.36Z" fill="none" stroke="#ef4444" stroke-miterlimit="10"/>
      <path d="M101.38,40.98c.88,2.38,2.5,4.2,3.56,6.36,2.56,5.26,1.97,12.38-1.73,17.58-2.64,3.68-5.03,6.14-5.07,10.39-.03,3.51.6,7.15-1.6,10.61-2.56,4.03-6.78,6.78-11.89,6.99-3.34.14-6.56-.69-9.32-2.08-1.81-.91-3.41-2.11-5.27-3.07-2.06-1.07-4.42-1.94-6.9-2.22-1.4-.16-2.79-.1-4.15-.06-6.08.18-13.95,1.47-17.24-5.08-.89-1.78-1.65-3.66-2.9-5.31-1.49-1.97-3.57-3.37-5.55-4.49-1.98-1.11-3.89-2.07-5.74-3.33-1.85-1.25-3.1-2.7-3.78-4.4-1.07-2.68-.65-5.87.72-9.06,1-2.34,2.22-4.63,2.87-7.14,1.84-7.08-1.53-13.42,1.56-20.09,2-4.32,6.33-7.3,10.77-8.85,4.43-1.54,9.09-1.9,13.84-2.38,4.52-.46,9.31-1.24,13.49-2.96,5.39-2.21,10.85-2.68,16.66-1.14,5.6,1.48,10.69,5.09,13.44,10.24,3.17,5.98,1.81,12.95,4.22,19.49Z" fill="none" stroke="#ef4444" stroke-miterlimit="10"/>
      <path d="M99.97,39.65c.95,2.33,2.67,4.07,3.83,6.18,2.79,5.12,2.32,12.24-1.39,17.37-2.65,3.65-5.05,6.02-4.87,10.32.15,3.5,1.07,7.18-1.02,10.69-2.43,4.08-6.59,6.85-11.68,6.96-3.32.07-6.49-.87-9.18-2.37-1.77-.99-3.31-2.26-5.11-3.29-1.97-1.12-4.25-2.05-6.67-2.3-1.36-.14-2.72-.06-4.05.02-5.88.34-13.74,2.02-16.78-4.57-.81-1.76-1.48-3.63-2.69-5.25-1.44-1.93-3.53-3.24-5.52-4.24-1.99-1-3.94-1.81-5.81-2.94-1.9-1.15-3.18-2.52-3.86-4.15-1.08-2.58-.6-5.69.86-8.79,1.06-2.26,2.34-4.47,3-6.93,1.85-6.92-1.96-13.11.97-19.72,1.89-4.26,6.2-7.14,10.58-8.55,4.38-1.4,8.96-1.59,13.62-1.99,4.44-.37,9.13-1.12,13.17-2.97,5.06-2.32,10.21-3.02,15.84-1.69,5.38,1.27,10.33,4.65,12.9,9.59,2.98,5.75,1.35,12.43,3.87,18.61Z" fill="none" stroke="#ef4444" stroke-miterlimit="10"/>
      <path d="M98.55,38.32c1.02,2.28,2.84,3.94,4.09,6,3.02,4.98,2.67,12.1-1.05,17.16-2.67,3.61-5.07,5.9-4.66,10.25.32,3.49,1.54,7.2-.44,10.76-2.3,4.13-6.4,6.91-11.47,6.92-3.29,0-6.43-1.05-9.03-2.66-1.72-1.07-3.2-2.41-4.96-3.51-1.88-1.18-4.08-2.15-6.45-2.38-1.32-.13-2.65-.02-3.94.1-5.68.5-13.53,2.57-16.32-4.05-.74-1.75-1.32-3.61-2.49-5.19-1.39-1.89-3.48-3.1-5.48-3.98-2-.88-3.98-1.54-5.88-2.55-1.96-1.05-3.25-2.34-3.93-3.89-1.09-2.48-.56-5.51.99-8.52,1.12-2.18,2.46-4.31,3.12-6.71,1.86-6.77-2.4-12.79.37-19.35,1.78-4.2,6.06-6.99,10.39-8.25,4.33-1.26,8.84-1.29,13.4-1.59,4.35-.28,8.96-.99,12.85-2.97,4.73-2.41,9.58-3.36,15.01-2.24,5.17,1.06,9.96,4.21,12.36,8.94,2.79,5.52.9,11.9,3.52,17.74Z" fill="none" stroke="#ef4444" stroke-miterlimit="10"/>
      <path d="M97.14,36.98c1.1,2.23,3.01,3.82,4.36,5.82,3.24,4.84,3.02,11.96-.71,16.95-2.69,3.58-5.09,5.78-4.46,10.18.5,3.49,2.01,7.23.15,10.83-2.16,4.19-6.21,6.99-11.26,6.89-3.27-.06-6.36-1.23-8.89-2.96-1.67-1.15-3.1-2.56-4.8-3.73-1.79-1.23-3.91-2.25-6.22-2.46-1.29-.12-2.57.02-3.84.18-5.48.66-13.33,3.12-15.87-3.54-.66-1.74-1.16-3.58-2.28-5.13-1.34-1.84-3.43-2.96-5.45-3.72-2.01-.76-4.03-1.27-5.96-2.17-2.02-.94-3.33-2.16-4.01-3.64-1.1-2.38-.51-5.33,1.13-8.25,1.18-2.1,2.58-4.15,3.24-6.49,1.87-6.61-2.84-12.48-.22-18.99,1.67-4.14,5.92-6.83,10.21-7.95,4.28-1.12,8.72-.99,13.18-1.2,4.27-.19,8.79-.85,12.52-2.98,4.4-2.51,8.94-3.69,14.19-2.79,4.96.85,9.59,3.78,11.82,8.29,2.6,5.29.46,11.37,3.17,16.86Z" fill="none" stroke="#ef4444" stroke-miterlimit="10"/>
      <path d="M95.72,35.65c1.18,2.17,3.18,3.69,4.62,5.63,3.47,4.7,3.36,11.83-.37,16.74-2.71,3.55-5.12,5.66-4.26,10.11.67,3.48,2.48,7.26.73,10.91-2.03,4.24-6.02,7.06-11.05,6.86-3.25-.12-6.29-1.41-8.75-3.25-1.63-1.23-3-2.71-4.64-3.95-1.7-1.28-3.75-2.35-5.99-2.55-1.25-.11-2.5.06-3.73.25-5.29.82-13.13,3.67-15.41-3.03-.59-1.72-.99-3.56-2.08-5.06-1.29-1.8-3.39-2.83-5.41-3.47-2.02-.64-4.08-1-6.03-1.78-2.08-.84-3.41-1.98-4.09-3.38-1.11-2.27-.47-5.15,1.27-7.98,1.24-2.02,2.7-3.99,3.36-6.27,1.88-6.45-3.26-12.16-.81-18.62,1.56-4.08,5.79-6.67,10.02-7.65,4.23-.98,8.59-.69,12.96-.8,4.18-.1,8.63-.71,12.2-2.98,4.08-2.6,8.31-4.03,13.37-3.35,4.75.64,9.23,3.34,11.28,7.64,2.41,5.07.02,10.84,2.82,15.99Z" fill="none" stroke="#ef4444" stroke-miterlimit="10"/>
      <path d="M94.31,34.32c1.26,2.11,3.35,3.56,4.89,5.45,3.7,4.56,3.71,11.69-.03,16.53-2.73,3.52-5.15,5.55-4.05,10.04.85,3.48,2.95,7.28,1.31,10.98-1.9,4.29-5.84,7.13-10.84,6.82-3.22-.19-6.22-1.59-8.61-3.55-1.58-1.3-2.9-2.86-4.49-4.18-1.61-1.34-3.58-2.45-5.76-2.63-1.21-.1-2.43.1-3.62.33-5.09.98-12.93,4.22-14.96-2.51-.51-1.71-.83-3.53-1.87-5-1.25-1.76-3.34-2.69-5.38-3.21-2.04-.52-4.12-.72-6.1-1.39-2.14-.72-3.49-1.8-4.17-3.13-1.12-2.17-.42-4.97,1.4-7.71,1.3-1.94,2.82-3.83,3.48-6.05,1.89-6.3-3.7-11.85-1.41-18.26,1.45-4.02,5.65-6.51,9.83-7.35,4.17-.84,8.47-.39,12.75-.41,4.1-.02,8.48-.57,11.88-2.99,3.77-2.68,7.67-4.35,12.55-3.9,4.53.44,8.86,2.9,10.73,6.99,2.21,4.84-.41,10.3,2.47,15.11Z" fill="none" stroke="#ef4444" stroke-miterlimit="10"/>
      <path d="M31.99,58.08c.68,1.25,2.04,2.26,4.24,2.87,2.01.56,4.13.61,6.18,1.01,2.05.4,4.15,1.25,5.34,2.96,1,1.43,1.23,3.25,1.67,4.94,1.76,6.77,9.6,3.13,14.5,2,1.16-.27,2.34-.5,3.52-.41,2.13.16,4.01,1.33,5.54,2.71,1.53,1.39,2.8,3.02,4.33,4.4,2.31,2.08,5.27,3.58,8.46,3.84,4.98.4,8.86-2.44,10.63-6.79,1.52-3.74-.87-7.57-1.89-11.05-1.33-4.54,1.1-6.48,3.85-9.97,3.75-4.77,3.61-11.9-.31-16.32-1.63-1.84-3.81-3.23-5.15-5.27-2.96-4.49-.09-9.63-2.12-14.24-1.7-3.87-5.87-6.11-10.19-6.34-4.69-.24-8.26,1.68-11.73,4.45-3.23,2.58-7.55,3.07-11.56,2.99-4.18-.07-8.4-.69-12.53.01-4.12.7-8.31,3.09-9.64,7.06-2.14,6.36,3.91,11.75,2,17.89-.67,2.16-2.25,3.96-3.61,5.83-1.92,2.65-2.67,5.37-1.54,7.44Z" fill="none" stroke="#ef4444" stroke-miterlimit="10"/>
    </g>
  </g>
</svg>