<?xml version="1.0" encoding="UTF-8"?>
<svg id="Layer_2" data-name="Layer 2" xmlns="http://www.w3.org/2000/svg" viewBox="0 0 119.48 119.6">
  <g id="Graphic_Elements" data-name="Graphic Elements">
    <g opacity=".9">
      <g>
        <path d="M71.88,2.21c.28.03.55.06.83.1-.27-.04-.55-.07-.83-.1Z" fill="#ef4444"/>
        <path d="M89.17,7.79l-1.51-.81s0,0,0,0c-.04-.02-.09-.05-.13-.07-.16-.08-.32-.16-.48-.24.1.05.21.1.32.15-.24-.13-.48-.25-.72-.38l-1.06-.48c.09.04.19.09.28.13-1.3-.6-2.62-1.14-3.98-1.62-5.81-1.37-11.8-1.94-22.11-2.11,19.11.94,25.67,3.67,27.87,4.61.51.26,1.02.53,1.52.82Z" fill="#ef4444"/>
        <path d="M73.96,1.74c-.75-.18-1.5-.36-2.14-.5l-.4-.08c-2.2-.35-6.57.34-11.64,1.21.44-.06.87-.11,1.31-.16,8.39-.96,10.82-.8,12.87-.46Z" fill="#ef4444"/>
        <path d="M67.77.55c-.66-.09-1.48-.18-2.12-.25,0,0-.02,0-.03,0-.12.03-.14.04-5.84,2.07,6.62-1.76,7.27-1.77,8.16-1.79-.05,0-.11-.01-.17-.02Z" fill="#ef4444"/>
        <path d="M39.51,116.09c.14.05.29.1.44.16,1.06.36,2.38.77,3.39,1.08,1.05.3,2.46.63,3.52.88-13.79-3.37-25.56-10.92-34.97-22.46l2.65,3.27c.33.37.62.7.9,1,.98,1.02,2.14,2.2,3.32,3.34.73.67,1.64,1.47,2.9,2.59.65.52,1.41,1.1,2.19,1.68,6.69,4.93,11.26,6.75,15.67,8.47Z" fill="#ef4444"/>
        <path d="M62.78.17c-.09-.03-.2-.07-.29-.1,0,0-.01,0-.02,0-.62-.03-1-.04-1.04-.04-.35,0-.79-.02-1.16-.02.7.03.72.05,1.04.46q-.2.72-1.52,1.9c2.81-1.56,2.9-1.86,3-2.2Z" fill="#ef4444"/>
        <path d="M4.02,81.7c10.96,25.88,38.41,35.79,48.11,37.42.05,0,.09.01.14.02.51.06,1.15.13,1.65.18l1.02.09s.04,0,.05,0c-5.72-.53-45.06-12.14-53.92-47.85.1.53.19,1.05.29,1.53.66,2.49,1.67,5.75,2.52,8.23.05.13.1.25.14.38Z" fill="#ef4444"/>
        <path d="M58.11.46c1.36.51,1.43.81,1.67,1.9.99-2.23-1.07-2.27-2.89-2.3-.64.03-1.49.09-2.12.14l-.6.05c.93-.06,2.87-.19,3.94.21Z" fill="#ef4444"/>
        <path d="M58.44,119.59c.23,0,.45.01.68.01h.1s.08,0,.11,0c.26,0,.51,0,.77,0,.22,0,.44,0,.63,0,.01,0,.02,0,.03,0-4.54-.08-69.5-24.7-59-74.72,0,0,0,0,0,.01-.36,1.41-.71,3.31-1.01,4.73-.29,1.82-.53,4.27-.73,6.1-1.07,44.87,52.48,63.3,58.42,63.87Z" fill="#ef4444"/>
        <path d="M48.64,1.04c-.12.02-.25.05-.37.07,7.31-1.25,10.36.55,11.52,1.25-2.07-2.28-5.67-2.24-11.14-1.32Z" fill="#ef4444"/>
        <path d="M7.59,30.42c-26.39,50.88,47.53,86.8,56.37,89.03.06,0,.12,0,.18-.01l.39-.03c.06,0,.12-.01.19-.02.45-.04.99-.1,1.45-.14.06,0,.12-.01.17-.02-10.47-7.96-23.21-12.3-33.3-20.86-4.94-4.19-16.51-14-23.27-27.12-13.53-26.25-1.49-42.99,4.42-50.19-.21.24-.41.48-.61.71l-1,1.19c-1.56,2.15-3.53,5.1-4.94,7.37-.02.03-.03.06-.05.09Z" fill="#ef4444"/>
        <path d="M45.94,1.61s.07-.02.11-.03c-.09.02-.2.04-.28.06-.66.15-1.52.38-2.17.56-1.34.37-3.11.92-4.41,1.41-.8.3-1.86.7-2.64,1.03-.94.4-2.17.98-3.1,1.41-.95.44-2.18,1.09-3.08,1.62-1.06.62-2.37,1.43-3.53,2.18C14.88,18.08,5.45,31.27,6.76,46.14c3.08,35.08,42.81,59.14,57.76,68.2q5.18,3.14,5.48,4.36s.07-.01.1-.02c.82-.15,1.85-.37,2.67-.54.03,0,.06-.01.09-.02.29-.1.5-.52.7-.76-.68-1.31-2.01-2.25-9.2-6.96-18.5-12.12-37.12-26.06-47.99-45.81C-8.16,20,39.41-3.07,59.78,2.36c-3.95-1.53-8.76-1.7-13.84-.75Z" fill="#ef4444"/>
        <path d="M66.62,105.42c11.26,7.96,13.94,9.85,10.38,11.61.04-.01.08-.02.11-.03.55-.17,1.17-.38,1.78-.58.42-.14.83-.29,1.24-.44,5.04-2.34.65-5.58-9.85-13.31-11.61-8.55-26.07-19.19-38.33-34.75C-4.24,21.97,34.4-.76,59.78,2.36c-28.84-6.25-90.9,33.99,6.84,103.05Z" fill="#ef4444"/>
        <path d="M73.24,96.47c13.13,10.07,18.05,13.84,11.53,17.6.05-.02.1-.05.15-.07,1.09-.52,2.45-1.24,3.5-1.77,5.08-2.97,3.05-6.42.1-9.7-12.35-13.73-28.75-22.83-41.4-36.22C6.41,23.2,33.73,1.77,59.78,2.36,33.23-.06-14.19,29.43,73.24,96.47Z" fill="#ef4444"/>
        <path d="M83.39,88.15c12.51,10.02,16.97,15.41,10.29,20.83,1.14-.8,2.59-1.94,3.73-2.81.57-.47,1.17-.98,1.74-1.49,5.19-4.75,2.28-7.32-32.64-38.08C15.89,22.02,38.71,6.28,55.2,2.99c-14.96,2.79-56.68,17.16,28.19,85.16Z" fill="#ef4444"/>
        <path d="M59.12,2.42c-1.23.11-2.55.3-3.92.57,1.76-.33,3.14-.5,3.92-.57Z" fill="#ef4444"/>
        <path d="M59.78,2.36s-.28.02-.67.05c.22-.02.45-.04.67-.05Z" fill="#ef4444"/>
        <path d="M81.06,68.52c20.75,16.7,28.54,24.34,21.79,32.64.05-.05.09-.09.13-.14,1.06-1.14,2.34-2.65,3.34-3.8.02-.03.04-.05.06-.08,5.91-7.74.26-15.89-24.1-34.82C18.72,12.93,52.39,3.71,59.78,2.36c-5.39.68-50.58,8.33,21.28,66.15Z" fill="#ef4444"/>
        <path d="M85.35,55.16c23.48,17.54,29.94,26.51,25.55,35.48.18-.3.35-.59.52-.88l.16-.28c.12-.21.23-.4.34-.59l1.34-2.58c.16-.33.32-.66.48-.98,5.24-12.02-14.62-26.48-27.8-36.07C42.99,18,48.01,6.51,59.78,2.36c-10.05,2.62-27.69,13.02,25.57,52.8Z" fill="#ef4444"/>
        <path d="M86.5,41.54c20.5,14.44,32.78,24.1,30.23,36.15.12-.41.25-.82.36-1.22.41-1.5.82-3.19,1.15-4.54,1.76-12.01-10.64-21.17-31.01-35.1-13.46-9.21-38.51-26.35-27.44-34.47-17.36,8.13,15.81,31.5,26.71,39.18Z" fill="#ef4444"/>
        <path d="M88,30.92c23.1,14.99,30.95,21.79,31.37,32.11.01-.2.03-.41.04-.61l.07-2.52-.06-2.44c-.01-.28-.02-.55-.04-.83-.89-10.83-15.32-19.76-33.57-31.04-12.84-7.93-27.39-16.93-26.02-23.22-6.01,6.36,14.59,19.72,28.22,28.56Z" fill="#ef4444"/>
        <path d="M86.51,21.36c21.28,12.08,29.29,17.95,31.84,26.8-.32-1.53-.84-3.47-1.27-5.11-.1-.34-.2-.67-.3-1.01-3.46-9-15.05-15.46-35.18-26.04-14.23-7.49-18.92-10.42-21.81-13.62,1.66,4.76,12.17,10.73,26.72,18.99Z" fill="#ef4444"/>
        <path d="M113.73,34.23c-.09-.18-.17-.36-.26-.54l-1.21-2.39-.81-1.43c-.15-.26-.3-.52-.46-.78-2.74-4.26-7.7-7.43-14.8-11.15-11.73-6.14-24.31-10.27-36.4-15.57,3.77,2.4,10.7,5.58,19.47,9.61,23.27,10.69,30.44,15.31,34.48,22.25Z" fill="#ef4444"/>
        <path d="M106.48,22.59c-.11-.14-.21-.26-.33-.41-.07-.09-.14-.17-.22-.26-.09-.11-.18-.22-.27-.33-.88-1.02-1.87-2.13-2.66-3.02-5.2-5.33-19.74-10.78-43.21-16.21,35.6,10.67,42.49,15.67,46.69,20.23Z" fill="#ef4444"/>
        <path d="M96.71,12.88c-.87-.67-1.82-1.37-2.64-1.97-.17-.12-.34-.23-.51-.35-5.65-3.56-17-6.32-33.78-8.2,10.44,1.55,29.11,5.05,37.67,11.12-.25-.21-.5-.41-.74-.6Z" fill="#ef4444"/>
        <path d="M73.03,2.35c1.39.19,2.77.44,4.11.75,2.39.4,2.69.49,4.51,1.08-.05-.02-.11-.05-.16-.06-.91-.36-2.15-.78-3.08-1.11,0,0-.02,0-.02,0-2.19-.71-4.76-.8-7.74-.92.14.01.27.03.41.04-1.52-.14-3.07-.22-4.64-.22-2.41.12-2.73.14-6.63.46,6.2-.26,9-.21,13.24-.01ZM71.88,2.21c.28.03.55.06.83.1-.27-.04-.55-.07-.83-.1Z" fill="#ef4444"/>
      </g>
    </g>
  </g>
</svg>