<?xml version="1.0" encoding="UTF-8"?>
<svg id="Layer_2" data-name="Layer 2" xmlns="http://www.w3.org/2000/svg" viewBox="0 0 133.21 144.75">
  <g id="Graphic_Elements" data-name="Graphic Elements">
    <g opacity=".9">
      <circle cx="39.59" cy="102.05" r="6.87" transform="translate(-6.86 2.94) rotate(-3.91)" fill="#ef4444"/>
      <circle cx="59.75" cy="114.4" r="6.62" fill="#ef4444"/>
      <path d="M76.16,116.33c0-3.52,2.85-6.37,6.37-6.37s6.37,2.85,6.37,6.37-2.85,6.37-6.37,6.37-6.37-2.85-6.37-6.37Z" fill="#ef4444"/>
      <path d="M97.99,107.84c0-3.38,2.74-6.13,6.13-6.13s6.13,2.74,6.13,6.13-2.74,6.13-6.13,6.13-6.13-2.74-6.13-6.13Z" fill="#ef4444"/>
      <path d="M114.35,89.97c0-3.25,2.63-5.88,5.88-5.88s5.88,2.63,5.88,5.88-2.63,5.88-5.88,5.88-5.88-2.63-5.88-5.88Z" fill="#ef4444"/>
      <path d="M121.55,67.94c0-3.11,2.52-5.63,5.63-5.63s5.63,2.52,5.63,5.63-2.52,5.63-5.63,5.63-5.63-2.52-5.63-5.63Z" fill="#ef4444"/>
      <path d="M119.37,45.16c0-2.98,2.41-5.39,5.39-5.39s5.39,2.41,5.39,5.39-2.41,5.39-5.39,5.39-5.39-2.41-5.39-5.39Z" fill="#ef4444"/>
      <path d="M107.8,24.74c0-2.84,2.3-5.14,5.14-5.14s5.14,2.3,5.14,5.14-2.3,5.14-5.14,5.14-5.14-2.3-5.14-5.14Z" fill="#ef4444"/>
      <path d="M88.77,10.48c0-2.7,2.19-4.89,4.89-4.89s4.89,2.19,4.89,4.89-2.19,4.89-4.89,4.89-4.89-2.19-4.89-4.89Z" fill="#ef4444"/>
      <path d="M66.71,4.65c0-2.57,2.08-4.65,4.65-4.65s4.65,2.08,4.65,4.65-2.08,4.65-4.65,4.65-4.65-2.08-4.65-4.65Z" fill="#ef4444"/>
      <path d="M44.17,7.27c0-2.43,1.97-4.4,4.4-4.4s4.4,1.97,4.4,4.4-1.97,4.4-4.4,4.4-4.4-1.97-4.4-4.4Z" fill="#ef4444"/>
      <path d="M23.68,18.35c0-2.3,1.86-4.16,4.16-4.16s4.16,1.86,4.16,4.16-1.86,4.16-4.16,4.16-4.16-1.86-4.16-4.16Z" fill="#ef4444"/>
      <path d="M8.23,36.75c0-2.16,1.75-3.91,3.91-3.91s3.91,1.75,3.91,3.91-1.75,3.91-3.91,3.91-3.91-1.75-3.91-3.91Z" fill="#ef4444"/>
      <path d="M.31,58.5c0-2.02,1.64-3.66,3.66-3.66s3.66,1.64,3.66,3.66-1.64,3.66-3.66,3.66-3.66-1.64-3.66-3.66Z" fill="#ef4444"/>
      <path d="M0,81.42c0-1.89,1.53-3.42,3.42-3.42s3.42,1.53,3.42,3.42-1.53,3.42-3.42,3.42-3.42-1.53-3.42-3.42Z" fill="#ef4444"/>
      <path d="M7.31,103.47c0-1.75,1.42-3.17,3.17-3.17s3.17,1.42,3.17,3.17-1.42,3.17-3.17,3.17-3.17-1.42-3.17-3.17Z" fill="#ef4444"/>
      <path d="M22.2,122.57c0-1.61,1.31-2.92,2.92-2.92s2.92,1.31,2.92,2.92-1.31,2.92-2.92,2.92-2.92-1.31-2.92-2.92Z" fill="#ef4444"/>
      <path d="M42.26,135.88c0-1.48,1.2-2.68,2.68-2.68s2.68,1.2,2.68,2.68-1.2,2.68-2.68,2.68-2.68-1.2-2.68-2.68Z" fill="#ef4444"/>
      <path d="M64.72,142.32c0-1.34,1.09-2.43,2.43-2.43s2.43,1.09,2.43,2.43-1.09,2.43-2.43,2.43-2.43-1.09-2.43-2.43Z" fill="#ef4444"/>
      <circle cx="90.09" cy="141.91" r="2.18" fill="#ef4444"/>
      <path d="M110.17,134.63c0-1.07.87-1.94,1.94-1.94s1.94.87,1.94,1.94-.87,1.94-1.94,1.94-1.94-.87-1.94-1.94Z" fill="#ef4444"/>
      <path d="M129.82,120.5c0-.93.76-1.69,1.69-1.69s1.69.76,1.69,1.69-.76,1.69-1.69,1.69-1.69-.76-1.69-1.69Z" fill="#ef4444"/>
    </g>
  </g>
</svg>