<?xml version="1.0" encoding="UTF-8"?>
<svg id="Layer_2" data-name="Layer 2" xmlns="http://www.w3.org/2000/svg" viewBox="0 0 114.27 112.5">
  <g id="Graphic_Elements" data-name="Graphic Elements">
    <g opacity=".9">
      <g>
        <path d="M104.33,107.53c0-2.74,2.22-4.97,4.97-4.97s4.97,2.22,4.97,4.97-2.22,4.97-4.97,4.97-4.97-2.22-4.97-4.97Z" fill="#ef4444"/>
        <path d="M104.83,94.22c0-2.47,2-4.47,4.47-4.47s4.47,2,4.47,4.47-2,4.47-4.47,4.47-4.47-2-4.47-4.47Z" fill="#ef4444"/>
        <circle cx="109.3" cy="80.9" r="3.98" fill="#ef4444"/>
        <path d="M105.82,67.58c0-1.92,1.56-3.48,3.48-3.48s3.48,1.56,3.48,3.48-1.56,3.48-3.48,3.48-3.48-1.56-3.48-3.48Z" fill="#ef4444"/>
        <path d="M106.31,54.27c0-1.65,1.34-2.99,2.99-2.99s2.99,1.34,2.99,2.99-1.34,2.99-2.99,2.99-2.99-1.34-2.99-2.99Z" fill="#ef4444"/>
        <path d="M106.81,40.95c0-1.38,1.12-2.49,2.49-2.49s2.49,1.12,2.49,2.49-1.12,2.49-2.49,2.49-2.49-1.12-2.49-2.49Z" fill="#ef4444"/>
        <path d="M107.31,27.64c0-1.1.89-2,2-2s2,.89,2,2-.89,2-2,2-2-.89-2-2Z" fill="#ef4444"/>
        <path d="M107.8,14.32c0-.83.67-1.5,1.5-1.5s1.5.67,1.5,1.5-.67,1.5-1.5,1.5-1.5-.67-1.5-1.5Z" fill="#ef4444"/>
        <path d="M108.3,1.01c0-.56.45-1.01,1.01-1.01s1.01.45,1.01,1.01-.45,1.01-1.01,1.01-1.01-.45-1.01-1.01Z" fill="#ef4444"/>
      </g>
      <g>
        <path d="M89.43,107.53c0-2.74,2.23-4.97,4.97-4.97s4.97,2.22,4.97,4.97-2.23,4.97-4.97,4.97-4.97-2.22-4.97-4.97Z" fill="#ef4444"/>
        <circle cx="94.4" cy="94.22" r="4.47" fill="#ef4444"/>
        <circle cx="94.4" cy="80.9" r="3.98" fill="#ef4444"/>
        <path d="M90.91,67.58c0-1.92,1.56-3.48,3.48-3.48s3.48,1.56,3.48,3.48-1.56,3.48-3.48,3.48-3.48-1.56-3.48-3.48Z" fill="#ef4444"/>
        <path d="M91.41,54.27c0-1.65,1.34-2.99,2.99-2.99s2.99,1.34,2.99,2.99-1.34,2.99-2.99,2.99-2.99-1.34-2.99-2.99Z" fill="#ef4444"/>
        <path d="M91.91,40.95c0-1.38,1.12-2.49,2.49-2.49s2.49,1.12,2.49,2.49-1.12,2.49-2.49,2.49-2.49-1.12-2.49-2.49Z" fill="#ef4444"/>
        <circle cx="94.4" cy="27.64" r="2" fill="#ef4444"/>
        <circle cx="94.4" cy="14.32" r="1.5" fill="#ef4444"/>
        <path d="M93.39,1.01c0-.56.45-1.01,1.01-1.01s1.01.45,1.01,1.01-.45,1.01-1.01,1.01-1.01-.45-1.01-1.01Z" fill="#ef4444"/>
      </g>
      <g>
        <path d="M74.52,107.53c0-2.74,2.22-4.97,4.97-4.97s4.97,2.22,4.97,4.97-2.22,4.97-4.97,4.97-4.97-2.22-4.97-4.97Z" fill="#ef4444"/>
        <path d="M75.02,94.22c0-2.47,2-4.47,4.47-4.47s4.47,2,4.47,4.47-2,4.47-4.47,4.47-4.47-2-4.47-4.47Z" fill="#ef4444"/>
        <path d="M75.51,80.9c0-2.2,1.78-3.98,3.98-3.98s3.98,1.78,3.98,3.98-1.78,3.98-3.98,3.98-3.98-1.78-3.98-3.98Z" fill="#ef4444"/>
        <path d="M76.01,67.58c0-1.92,1.56-3.48,3.48-3.48s3.48,1.56,3.48,3.48-1.56,3.48-3.48,3.48-3.48-1.56-3.48-3.48Z" fill="#ef4444"/>
        <path d="M76.51,54.27c0-1.65,1.34-2.99,2.99-2.99s2.99,1.34,2.99,2.99-1.34,2.99-2.99,2.99-2.99-1.34-2.99-2.99Z" fill="#ef4444"/>
        <path d="M77,40.95c0-1.38,1.12-2.49,2.49-2.49s2.49,1.12,2.49,2.49-1.12,2.49-2.49,2.49-2.49-1.12-2.49-2.49Z" fill="#ef4444"/>
        <path d="M77.5,27.64c0-1.1.89-2,2-2s2,.89,2,2-.89,2-2,2-2-.89-2-2Z" fill="#ef4444"/>
        <path d="M77.99,14.32c0-.83.67-1.5,1.5-1.5s1.5.67,1.5,1.5-.67,1.5-1.5,1.5-1.5-.67-1.5-1.5Z" fill="#ef4444"/>
        <path d="M78.49,1.01c0-.56.45-1.01,1.01-1.01s1.01.45,1.01,1.01-.45,1.01-1.01,1.01-1.01-.45-1.01-1.01Z" fill="#ef4444"/>
      </g>
      <g>
        <path d="M59.62,107.53c0-2.74,2.22-4.97,4.97-4.97s4.97,2.22,4.97,4.97-2.22,4.97-4.97,4.97-4.97-2.22-4.97-4.97Z" fill="#ef4444"/>
        <circle cx="64.59" cy="94.22" r="4.47" fill="#ef4444"/>
        <path d="M60.61,80.9c0-2.2,1.78-3.98,3.98-3.98s3.98,1.78,3.98,3.98-1.78,3.98-3.98,3.98-3.98-1.78-3.98-3.98Z" fill="#ef4444"/>
        <path d="M61.11,67.58c0-1.92,1.56-3.48,3.48-3.48s3.48,1.56,3.48,3.48-1.56,3.48-3.48,3.48-3.48-1.56-3.48-3.48Z" fill="#ef4444"/>
        <path d="M61.6,54.27c0-1.65,1.34-2.99,2.99-2.99s2.99,1.34,2.99,2.99-1.34,2.99-2.99,2.99-2.99-1.34-2.99-2.99Z" fill="#ef4444"/>
        <circle cx="64.59" cy="40.95" r="2.49" fill="#ef4444"/>
        <path d="M62.59,27.64c0-1.1.89-2,2-2s2,.89,2,2-.89,2-2,2-2-.89-2-2Z" fill="#ef4444"/>
        <path d="M63.09,14.32c0-.83.67-1.5,1.5-1.5s1.5.67,1.5,1.5-.67,1.5-1.5,1.5-1.5-.67-1.5-1.5Z" fill="#ef4444"/>
        <path d="M63.58,1.01c0-.56.45-1.01,1.01-1.01s1.01.45,1.01,1.01-.45,1.01-1.01,1.01-1.01-.45-1.01-1.01Z" fill="#ef4444"/>
      </g>
      <g>
        <path d="M44.71,107.53c0-2.74,2.22-4.97,4.97-4.97s4.97,2.22,4.97,4.97-2.22,4.97-4.97,4.97-4.97-2.22-4.97-4.97Z" fill="#ef4444"/>
        <path d="M45.21,94.22c0-2.47,2-4.47,4.47-4.47s4.47,2,4.47,4.47-2,4.47-4.47,4.47-4.47-2-4.47-4.47Z" fill="#ef4444"/>
        <circle cx="49.68" cy="80.9" r="3.98" fill="#ef4444"/>
        <path d="M46.2,67.58c0-1.92,1.56-3.48,3.48-3.48s3.48,1.56,3.48,3.48-1.56,3.48-3.48,3.48-3.48-1.56-3.48-3.48Z" fill="#ef4444"/>
        <path d="M46.7,54.27c0-1.65,1.34-2.99,2.99-2.99s2.99,1.34,2.99,2.99-1.34,2.99-2.99,2.99-2.99-1.34-2.99-2.99Z" fill="#ef4444"/>
        <circle cx="49.68" cy="40.95" r="2.49" fill="#ef4444"/>
        <path d="M47.69,27.64c0-1.1.89-2,2-2s2,.89,2,2-.89,2-2,2-2-.89-2-2Z" fill="#ef4444"/>
        <circle cx="49.68" cy="14.32" r="1.5" fill="#ef4444"/>
        <path d="M48.68,1.01c0-.56.45-1.01,1.01-1.01s1.01.45,1.01,1.01-.45,1.01-1.01,1.01-1.01-.45-1.01-1.01Z" fill="#ef4444"/>
      </g>
      <g>
        <path d="M29.81,107.53c0-2.74,2.22-4.97,4.97-4.97s4.97,2.22,4.97,4.97-2.22,4.97-4.97,4.97-4.97-2.22-4.97-4.97Z" fill="#ef4444"/>
        <circle cx="34.78" cy="94.22" r="4.47" fill="#ef4444"/>
        <circle cx="34.78" cy="80.9" r="3.98" fill="#ef4444"/>
        <path d="M31.3,67.58c0-1.92,1.56-3.48,3.48-3.48s3.48,1.56,3.48,3.48-1.56,3.48-3.48,3.48-3.48-1.56-3.48-3.48Z" fill="#ef4444"/>
        <path d="M31.79,54.27c0-1.65,1.34-2.99,2.99-2.99s2.99,1.34,2.99,2.99-1.34,2.99-2.99,2.99-2.99-1.34-2.99-2.99Z" fill="#ef4444"/>
        <path d="M32.29,40.95c0-1.38,1.12-2.49,2.49-2.49s2.49,1.12,2.49,2.49-1.12,2.49-2.49,2.49-2.49-1.12-2.49-2.49Z" fill="#ef4444"/>
        <circle cx="34.78" cy="27.64" r="2" fill="#ef4444"/>
        <circle cx="34.78" cy="14.32" r="1.5" fill="#ef4444"/>
        <path d="M33.77,1.01c0-.56.45-1.01,1.01-1.01s1.01.45,1.01,1.01-.45,1.01-1.01,1.01-1.01-.45-1.01-1.01Z" fill="#ef4444"/>
      </g>
      <g>
        <path d="M14.9,107.53c0-2.74,2.22-4.97,4.97-4.97s4.97,2.22,4.97,4.97-2.22,4.97-4.97,4.97-4.97-2.22-4.97-4.97Z" fill="#ef4444"/>
        <path d="M15.4,94.22c0-2.47,2-4.47,4.47-4.47s4.47,2,4.47,4.47-2,4.47-4.47,4.47-4.47-2-4.47-4.47Z" fill="#ef4444"/>
        <circle cx="19.87" cy="80.9" r="3.98" fill="#ef4444"/>
        <path d="M16.39,67.58c0-1.92,1.56-3.48,3.48-3.48s3.48,1.56,3.48,3.48-1.56,3.48-3.48,3.48-3.48-1.56-3.48-3.48Z" fill="#ef4444"/>
        <path d="M16.89,54.27c0-1.65,1.34-2.99,2.99-2.99s2.99,1.34,2.99,2.99-1.34,2.99-2.99,2.99-2.99-1.34-2.99-2.99Z" fill="#ef4444"/>
        <path d="M17.38,40.95c0-1.38,1.12-2.49,2.49-2.49s2.49,1.12,2.49,2.49-1.12,2.49-2.49,2.49-2.49-1.12-2.49-2.49Z" fill="#ef4444"/>
        <path d="M17.88,27.64c0-1.1.89-2,2-2s2,.89,2,2-.89,2-2,2-2-.89-2-2Z" fill="#ef4444"/>
        <circle cx="19.87" cy="14.32" r="1.5" fill="#ef4444"/>
        <path d="M18.87,1.01c0-.56.45-1.01,1.01-1.01s1.01.45,1.01,1.01-.45,1.01-1.01,1.01-1.01-.45-1.01-1.01Z" fill="#ef4444"/>
      </g>
      <g>
        <path d="M0,107.53c0-2.74,2.22-4.97,4.97-4.97s4.97,2.22,4.97,4.97-2.22,4.97-4.97,4.97-4.97-2.22-4.97-4.97Z" fill="#ef4444"/>
        <circle cx="4.97" cy="94.22" r="4.47" fill="#ef4444"/>
        <circle cx="4.97" cy="80.9" r="3.98" fill="#ef4444"/>
        <path d="M1.49,67.58c0-1.92,1.56-3.48,3.48-3.48s3.48,1.56,3.48,3.48-1.56,3.48-3.48,3.48-3.48-1.56-3.48-3.48Z" fill="#ef4444"/>
        <path d="M1.98,54.27c0-1.65,1.34-2.99,2.99-2.99s2.99,1.34,2.99,2.99-1.34,2.99-2.99,2.99-2.99-1.34-2.99-2.99Z" fill="#ef4444"/>
        <path d="M2.48,40.95c0-1.38,1.12-2.49,2.49-2.49s2.49,1.12,2.49,2.49-1.12,2.49-2.49,2.49-2.49-1.12-2.49-2.49Z" fill="#ef4444"/>
        <circle cx="4.97" cy="27.64" r="2" fill="#ef4444"/>
        <circle cx="4.97" cy="14.32" r="1.5" fill="#ef4444"/>
        <path d="M3.96,1.01c0-.56.45-1.01,1.01-1.01s1.01.45,1.01,1.01-.45,1.01-1.01,1.01-1.01-.45-1.01-1.01Z" fill="#ef4444"/>
      </g>
    </g>
  </g>
</svg>