<?xml version="1.0" encoding="UTF-8"?>
<svg xmlns="http://www.w3.org/2000/svg" viewBox="0 0 150.08 149.69">
  <g isolation="isolate">
    <g id="Layer_2" data-name="Layer 2">
      <g id="Graphic_Elements" data-name="Graphic Elements">
        <g opacity=".9">
          <g mix-blend-mode="multiply" opacity=".1">
            <polygon points="76.53 149.69 76.32 131.08 76.19 112.48 76.09 75.26 76.19 38.04 76.31 19.43 76.53 .82 76.75 19.43 76.87 38.04 76.98 75.26 76.87 112.48 76.75 131.08 76.53 149.69" fill="#ef4444"/>
            <polygon points="80.03 147.93 78.93 130.22 77.93 112.5 76.05 77.06 74.38 41.61 73.62 23.89 72.95 6.15 74.05 23.86 75.06 41.58 76.93 77.02 78.6 112.47 79.36 130.2 80.03 147.93" fill="#ef4444"/>
            <polygon points="83.54 146.17 81.55 129.36 79.66 112.53 76.01 78.87 72.57 45.19 70.92 28.34 69.36 11.48 71.35 28.29 73.24 45.12 76.89 78.78 80.33 112.46 81.98 129.31 83.54 146.17" fill="#ef4444"/>
            <polygon points="87.04 144.41 84.17 128.5 81.39 112.57 75.98 80.68 70.76 48.77 68.22 32.79 65.78 16.81 68.64 32.72 71.42 48.65 76.84 80.54 82.05 112.46 84.59 128.43 87.04 144.41" fill="#ef4444"/>
            <polygon points="90.54 142.65 86.79 127.64 83.13 112.6 75.94 82.49 68.95 52.34 65.53 37.25 62.19 22.14 65.94 37.15 69.6 52.19 76.79 82.3 83.78 112.45 87.2 127.54 90.54 142.65" fill="#ef4444"/>
            <polygon points="94.04 140.89 89.41 126.78 84.87 112.63 75.91 84.31 67.15 55.92 62.83 41.71 58.61 27.47 63.24 41.58 67.78 55.72 76.74 84.05 85.5 112.44 89.81 126.65 94.04 140.89" fill="#ef4444"/>
            <polygon points="97.55 139.13 92.04 125.92 86.61 112.67 75.89 86.12 65.35 59.5 60.14 46.16 55.02 32.8 60.53 46.01 65.96 59.26 76.68 85.8 87.22 112.42 92.42 125.76 97.55 139.13" fill="#ef4444"/>
            <polygon points="101.05 137.37 94.66 125.06 88.35 112.7 75.86 87.94 63.55 63.08 57.45 50.62 51.43 38.12 57.82 50.44 64.13 62.79 76.62 87.56 88.94 112.41 95.03 124.87 101.05 137.37" fill="#ef4444"/>
            <polygon points="104.55 135.61 97.29 124.2 90.1 112.74 75.84 89.75 61.75 66.66 54.76 55.08 47.85 43.45 55.11 54.86 62.3 66.32 76.56 89.31 90.65 112.4 97.64 123.98 104.55 135.61" fill="#ef4444"/>
            <polygon points="108.05 133.85 99.92 123.34 91.85 112.78 75.82 91.57 59.95 70.24 52.07 59.54 44.26 48.78 52.4 59.29 60.47 69.85 76.49 91.06 92.36 112.39 100.24 123.09 108.05 133.85" fill="#ef4444"/>
            <polygon points="111.56 132.09 102.55 122.48 93.6 112.81 75.81 93.38 58.16 73.82 49.39 63.99 40.68 54.11 49.69 63.72 58.64 73.39 76.43 92.82 94.07 112.38 102.85 122.2 111.56 132.09" fill="#ef4444"/>
            <polygon points="115.06 130.33 105.18 121.62 95.35 112.84 75.8 95.19 56.37 77.4 46.7 68.45 37.09 59.44 46.98 68.15 56.8 76.92 76.35 94.58 95.78 112.37 105.45 121.32 115.06 130.33" fill="#ef4444"/>
            <polygon points="118.56 128.57 107.81 120.75 97.11 112.87 75.79 97 54.58 80.97 44.02 72.9 33.51 64.77 44.26 72.58 54.96 80.46 76.28 96.34 97.49 112.36 108.05 120.43 118.56 128.57" fill="#ef4444"/>
            <polygon points="122.06 126.81 110.44 119.89 98.86 112.9 75.78 98.8 52.79 84.54 41.33 77.35 29.92 70.1 41.54 77.01 53.12 84 76.21 98.1 99.19 112.36 110.65 119.55 122.06 126.81" fill="#ef4444"/>
            <polygon points="125.57 125.05 113.07 119.02 100.62 112.92 75.77 100.6 51 88.11 38.65 81.8 26.34 75.42 38.83 81.45 51.28 87.55 76.13 99.87 100.9 112.36 113.25 118.67 125.57 125.05" fill="#ef4444"/>
            <polygon points="129.07 123.29 115.71 118.15 102.37 112.94 75.76 102.39 49.21 91.67 35.97 86.25 22.75 80.75 36.11 85.89 49.45 91.1 76.06 101.64 102.6 112.37 115.85 117.79 129.07 123.29" fill="#ef4444"/>
            <polygon points="132.57 121.53 118.34 117.28 104.13 112.96 75.75 104.19 47.42 95.24 33.28 90.7 19.17 86.08 33.4 90.32 47.61 94.65 75.99 103.42 104.31 112.37 118.45 116.91 132.57 121.53" fill="#ef4444"/>
            <polygon points="136.07 119.77 120.97 116.41 105.88 112.97 75.74 105.98 45.63 98.8 30.6 95.14 15.58 91.41 30.69 94.76 45.77 98.2 75.92 105.2 106.02 112.38 121.06 116.03 136.07 119.77" fill="#ef4444"/>
            <polygon points="139.58 118.01 123.6 115.54 107.63 112.99 75.72 107.76 43.84 102.36 27.91 99.59 11.99 96.74 27.97 99.2 43.94 101.75 75.85 106.98 107.73 112.39 123.66 115.16 139.58 118.01" fill="#ef4444"/>
            <polygon points="143.08 116.24 126.22 114.66 109.38 113 75.7 109.55 42.04 105.91 25.22 104.03 8.41 102.07 25.26 103.65 42.11 105.31 75.78 108.76 109.44 112.4 126.27 114.28 143.08 116.24" fill="#ef4444"/>
            <polygon points="146.58 114.48 128.85 113.79 111.13 113.01 75.68 111.33 40.25 109.47 22.53 108.47 4.82 107.4 22.55 108.09 40.28 108.87 75.72 110.55 111.16 112.41 128.87 113.41 146.58 114.48" fill="#ef4444"/>
            <polygon points="150.08 112.72 131.48 112.91 112.87 113.02 75.66 113.11 38.45 113.02 19.84 112.91 1.24 112.72 19.84 112.53 38.45 112.42 75.66 112.34 112.87 112.43 131.48 112.53 150.08 112.72" fill="#ef4444"/>
          </g>
          <g>
            <polygon points="75.29 148.87 75.08 130.26 74.95 111.65 74.85 74.43 74.95 37.22 75.08 18.61 75.29 0 75.51 18.61 75.64 37.22 75.74 74.43 75.63 111.65 75.51 130.26 75.29 148.87" fill="#ef4444"/>
            <polygon points="78.8 147.11 77.7 129.4 76.69 111.68 74.81 76.24 73.14 40.79 72.38 23.06 71.71 5.33 72.81 23.04 73.82 40.76 75.69 76.2 77.36 111.65 78.13 129.38 78.8 147.11" fill="#ef4444"/>
            <polygon points="82.3 145.35 80.32 128.53 78.42 111.71 74.78 78.05 71.33 44.37 69.68 27.52 68.12 10.66 70.11 27.47 72 44.29 75.65 77.96 79.09 111.64 80.74 128.49 82.3 145.35" fill="#ef4444"/>
            <polygon points="85.8 143.59 82.93 127.67 80.16 111.74 74.74 79.86 69.52 47.94 66.99 31.97 64.54 15.99 67.41 31.9 70.19 47.83 75.6 79.72 80.82 111.63 83.35 127.6 85.8 143.59" fill="#ef4444"/>
            <polygon points="89.3 141.83 85.55 126.81 81.89 111.78 74.71 81.67 67.72 51.52 64.29 36.43 60.95 21.31 64.7 36.33 68.37 51.37 75.55 81.47 82.54 111.62 85.97 126.72 89.3 141.83" fill="#ef4444"/>
            <polygon points="92.81 140.07 88.18 125.95 83.63 111.81 74.68 83.48 65.91 55.1 61.6 40.88 57.37 26.64 62 40.76 66.54 54.9 75.5 83.23 84.26 111.61 88.58 125.83 92.81 140.07" fill="#ef4444"/>
            <polygon points="96.31 138.31 90.8 125.09 85.37 111.84 74.65 85.3 64.11 58.68 58.9 45.34 53.78 31.97 59.29 45.19 64.72 58.43 75.44 84.98 85.98 111.6 91.19 124.94 96.31 138.31" fill="#ef4444"/>
            <polygon points="99.81 136.55 93.42 124.23 87.12 111.88 74.62 87.11 62.31 62.26 56.21 49.8 50.2 37.3 56.58 49.61 62.89 61.97 75.38 86.73 87.7 111.59 93.79 124.05 99.81 136.55" fill="#ef4444"/>
            <polygon points="103.31 134.79 96.05 123.37 88.86 111.92 74.6 88.93 60.51 65.84 53.52 54.26 46.61 42.63 53.88 54.04 61.06 65.5 75.32 88.49 89.41 111.58 96.4 123.16 103.31 134.79" fill="#ef4444"/>
            <polygon points="106.82 133.03 98.68 122.51 90.61 111.95 74.58 90.74 58.71 69.42 50.83 58.71 43.03 47.96 51.16 58.47 59.23 69.03 75.26 90.24 91.13 111.57 99.01 122.27 106.82 133.03" fill="#ef4444"/>
            <polygon points="110.32 131.27 101.31 121.65 92.36 111.99 74.57 92.56 56.92 73 48.15 63.17 39.44 53.29 48.45 62.9 57.4 72.56 75.19 91.99 92.84 111.56 101.61 121.38 110.32 131.27" fill="#ef4444"/>
            <polygon points="113.82 129.5 103.94 120.79 94.12 112.02 74.56 94.37 55.13 76.57 45.46 67.63 35.85 58.61 45.74 67.33 55.56 76.1 75.12 93.75 94.54 111.55 104.21 120.49 113.82 129.5" fill="#ef4444"/>
            <polygon points="117.32 127.74 106.57 119.93 95.87 112.05 74.55 96.17 53.34 80.15 42.78 72.08 32.27 63.94 43.02 71.76 53.72 79.64 75.04 95.51 96.25 111.54 106.81 119.61 117.32 127.74" fill="#ef4444"/>
            <polygon points="120.83 125.98 109.2 119.06 97.63 112.07 74.54 97.98 51.55 83.72 40.1 76.53 28.68 69.27 40.31 76.19 51.88 83.18 74.97 97.28 97.96 111.54 109.41 118.72 120.83 125.98" fill="#ef4444"/>
            <polygon points="124.33 124.22 111.84 118.2 99.38 112.1 74.53 99.78 49.77 87.29 37.41 80.98 25.1 74.6 37.59 80.62 50.05 86.73 74.9 99.05 99.66 111.54 112.01 117.84 124.33 124.22" fill="#ef4444"/>
            <polygon points="127.83 122.46 114.47 117.33 101.14 112.12 74.52 101.57 47.98 90.85 34.73 85.43 21.51 79.93 34.88 85.06 48.21 90.27 74.82 100.82 101.37 111.54 114.61 116.96 127.83 122.46" fill="#ef4444"/>
            <polygon points="131.33 120.7 117.1 116.46 102.89 112.13 74.51 103.36 46.19 94.41 32.04 89.88 17.93 85.26 32.16 89.5 46.37 93.82 74.75 102.6 103.07 111.55 117.22 116.09 131.33 120.7" fill="#ef4444"/>
            <polygon points="134.84 118.94 119.73 115.59 104.64 112.15 74.5 105.15 44.39 97.97 29.36 94.32 14.34 90.59 29.45 93.94 44.54 97.38 74.68 104.38 104.78 111.56 119.82 115.21 134.84 118.94" fill="#ef4444"/>
            <polygon points="138.34 117.18 122.36 114.71 106.39 112.16 74.48 106.94 42.6 101.53 26.67 98.76 10.76 95.91 26.74 98.38 42.7 100.93 74.61 106.16 106.49 111.57 122.42 114.33 138.34 117.18" fill="#ef4444"/>
            <polygon points="141.84 115.42 124.99 113.84 108.14 112.18 74.46 108.72 40.81 105.09 23.98 103.21 7.17 101.24 24.02 102.82 40.87 104.49 74.55 107.94 108.2 111.58 125.03 113.46 141.84 115.42" fill="#ef4444"/>
            <polygon points="145.34 113.66 127.61 112.96 109.89 112.19 74.44 110.51 39.01 108.64 21.3 107.65 3.59 106.57 21.31 107.27 39.04 108.04 74.48 109.73 109.92 111.59 127.63 112.58 145.34 113.66" fill="#ef4444"/>
            <polygon points="148.85 111.9 130.24 112.09 111.63 112.2 74.42 112.29 37.21 112.2 18.61 112.09 0 111.9 18.61 111.71 37.21 111.6 74.42 111.51 111.63 111.6 130.24 111.71 148.85 111.9" fill="#ef4444"/>
          </g>
        </g>
      </g>
    </g>
  </g>
</svg>