<?xml version="1.0" encoding="UTF-8"?>
<svg id="Layer_2" data-name="Layer 2" xmlns="http://www.w3.org/2000/svg" viewBox="0 0 502.05 502.05">
  <g id="Layer_2-2" data-name="Layer 2">
    <g>
      <polygon points="360.04 374.89 344.74 326.72 295.54 334.47 295.54 312.84 265.01 291.77 279.85 265.77 251.03 195.8 214.43 301.39 192.07 282.31 146.83 374.89 113.73 374.89 159.21 220.72 172.57 298.31 200.51 208.32 219.02 248.09 251.03 87.12 271.89 192.07 297.54 173.01 329.48 298.31 356.32 274.46 388.32 374.89 360.04 374.89" fill="#fb2c36"/>
      <path d="M251.03,502.05c-33.88,0-66.76-6.64-97.72-19.73-29.89-12.64-56.74-30.74-79.79-53.79-23.05-23.05-41.15-49.89-53.79-79.79C6.64,317.78,0,284.91,0,251.03s6.64-66.76,19.73-97.72c12.64-29.89,30.74-56.74,53.79-79.79,23.05-23.05,49.89-41.15,79.79-53.79C184.27,6.64,217.15,0,251.03,0s66.76,6.64,97.72,19.73c29.89,12.64,56.74,30.74,79.79,53.79,23.05,23.05,41.15,49.89,53.79,79.79,13.09,30.96,19.73,63.84,19.73,97.72s-6.64,66.76-19.73,97.72c-12.64,29.89-30.74,56.74-53.79,79.79-23.05,23.05-49.89,41.15-79.79,53.79-30.96,13.09-63.84,19.73-97.72,19.73ZM251.03,35.23c-118.99,0-215.8,96.81-215.8,215.8s96.81,215.8,215.8,215.8,215.8-96.81,215.8-215.8S370.02,35.23,251.03,35.23Z" fill="#fb2c36"/>
    </g>
  </g>
</svg>